<?xml version="1.0" standalone="no"?>
<!DOCTYPE svg PUBLIC "-//W3C//DTD SVG 1.1//EN" "http://www.w3.org/Graphics/SVG/1.1/DTD/svg11.dtd" >
<!--
2013-9-30: Created.
-->
<svg>
<metadata>
Created by iconfont
</metadata>
<defs>

<font id="iconfont" horiz-adv-x="1024" >
  <font-face
    font-family="iconfont"
    font-weight="500"
    font-stretch="normal"
    units-per-em="1024"
    ascent="896"
    descent="-128"
  />
    <missing-glyph />
    
    <glyph glyph-name="warning" unicode="&#58882;" d="M1101.522606-64.84303999999997L591.26427 873.543643a43.232811 43.232811 0 0 1-75.780941 0L5.237346-64.84303999999997C-10.264704-93.41375200000004 10.511749-128 43.133993-128h1020.491966c32.622244 0 53.398697 34.586248 37.896647 63.15696zM103.869916-48.945718000000056L553.379976 777.739735 1002.890036-48.945718000000056zM458.922461 505.101279l55.35035-338.451146c3.32275-18.528347 20.381182-32.177563 40.342388-32.177564s37.056695 13.587455 40.342388 32.177564l55.35035 338.451146c4.212111 23.555706-15.020314 45.036236-40.342388 45.036236h-110.7007c-25.322075 0-44.566852-21.480531-40.342388-45.036236zM554.615199 80.86388399999998c-30.262967 0-54.720386-22.901037-54.720386-51.014716s24.457419-51.014717 54.720386-51.014717 54.720386 22.901037 54.720386 51.014717-24.457419 51.014717-54.720386 51.014716z"  horiz-adv-x="1106" />

    
    <glyph glyph-name="admin" unicode="&#58883;" d="M1099.437373 124.69861700000001l-161.832267 3.304454L884.463585 280.88014499999997l-53.153804-152.877074L669.489797 124.69861700000001l128.94742-97.745511-46.827433-154.953106L884.463585-35.53670299999999l132.841517-92.463297-46.827433 154.953106L1099.437373 124.69861700000001zM752.5311 235.821639a35.181996 35.181996 0 0 1-4.729423 49.505392c-46.594033 38.425029-100.607733 65.683705-157.729339 83.127293C677.855349 416.080231 738.281409 508.015307 738.281409 614.6914429999999 738.281409 769.779676 612.110222 896 456.972852 896S175.664295 769.828813 175.664295 614.6914429999999c0-106.025072 59.676724-197.419643 146.538419-245.352655C135.863434 311.73809700000004 0 137.75673900000004 0-67.35282299999994a35.157428 35.157428 0 1 1 70.314855 0c0 213.253998 173.489989 386.743987 386.743987 386.743987a387.272208 387.272208 0 0 0 245.966866-88.311233 35.231133 35.231133 0 0 1 49.505392 4.741708zM246.101993 614.6914429999999c0 116.319246 94.588467 210.944565 210.944565 210.944565s210.944565-94.588467 210.944565-210.944565-94.588467-210.944565-210.944565-210.944565S246.101993 498.40905 246.101993 614.6914429999999z"  horiz-adv-x="1099" />

    
    <glyph glyph-name="apply" unicode="&#58884;" d="M353.49815 862.959635H70.704225A70.658354 70.658354 0 0 1 0.000011 792.255422v-282.793925a70.658354 70.658354 0 0 1 70.704214-70.704213h282.793925A70.658354 70.658354 0 0 1 424.202363 509.461497V792.255422a70.658354 70.658354 0 0 1-70.704213 70.704213z m-2.671329-350.82681H73.375553v277.451269h277.451268zM1005.164682 696.133462l-181.03122 181.03122a63.859651 63.859651 0 0 1-90.572935 0l-181.03122-181.03122a63.859651 63.859651 0 0 1 0-90.572935l181.03122-181.03122a63.859651 63.859651 0 0 1 90.572935 0l181.03122 181.03122a63.859651 63.859651 0 0 1 0 90.572935zM778.85846 483.046302L611.080697 650.85846 778.85846 818.670617l167.812157-167.812157zM353.49815 296.202363H70.704225A70.658354 70.658354 0 0 1 0.000011 225.50961500000005v-282.80539a70.658354 70.658354 0 0 1 70.704214-70.704214h282.793925A70.658354 70.658354 0 0 1 424.202363-57.29577500000005V225.50961500000005a70.658354 70.658354 0 0 1-70.704213 70.692748z m-2.671329-350.82681H73.375553v277.451268h277.451268zM920.255422 296.202363H637.450032a70.658354 70.658354 0 0 1-70.704213-70.704213v-282.793925A70.658354 70.658354 0 0 1 637.450032-127.99998900000003h282.80539a70.658354 70.658354 0 0 1 70.704213 70.704214V225.50961500000005a70.658354 70.658354 0 0 1-70.704213 70.692748z m-2.671328-350.82681h-277.451269v277.451268h277.451269z"  horiz-adv-x="1024" />

    
    <glyph glyph-name="zan" unicode="&#58885;" d="M1099.344193 439.875855a36.851663 36.851663 0 0 1-30.757012 16.556723H692.729831V790.429301A105.718747 105.718747 0 0 1 587.109783 896h-68.79306a105.718747 105.718747 0 0 1-105.632386-105.570699v-198.976771q0-1.233735 0.086362-2.46747c0-0.481157 2.368771-49.534458-32.410217-86.756241-28.375904-30.34988-74.505253-45.746892-137.178988-45.746891H0V-128h862.232675a36.851663 36.851663 0 0 1 33.866024 22.318265l206.342168 510.766265a36.802313 36.802313 0 0 1-3.096674 34.791325zM73.690988 382.766265h132.651181v-437.383711H73.690988z m764.249446-437.112289H280.057831V384.382458c66.078843 5.971277 117.846361 28.622651 154.216868 67.522313 53.050602 56.751807 52.64347 128.308434 52.149976 140.399036V790.429301a31.966072 31.966072 0 0 0 31.892048 31.916723h68.780723a31.966072 31.966072 0 0 0 31.92906-31.916723v-336.451855h2.46747V382.766265h391.205012z"  horiz-adv-x="1105" />

    
    <glyph glyph-name="email" unicode="&#58886;" d="M1331.2 896H102.4A102.4 102.4 0 0 1 0 793.6v-819.2a102.4 102.4 0 0 1 102.4-102.4h1228.8a102.4 102.4 0 0 1 102.4 102.4V793.6a102.4 102.4 0 0 1-102.4 102.4zM102.4 657.6l382.928-273.6L102.4 110.39999999999998z m1228.8-683.2H102.4v10.224l471.024 336.464 143.376-102.4 143.328 102.4L1331.2-15.392000000000053z m0 136L948.224 384 1331.2 657.6z m0 672.928L716.8 344.528 102.4 783.376V793.6h1228.8z"  horiz-adv-x="1433" />

    
    <glyph glyph-name="bbs" unicode="&#58887;" d="M1095.894455 669.263216H831.368207V782.631608a113.503354 113.503354 0 0 1-113.368392 113.368392H113.368392A113.503354 113.503354 0 0 1 0 782.631608v-453.473568a113.503354 113.503354 0 0 1 113.368392-113.368392h37.789464v-191.970476L391.174937 215.78964800000006H529.052496v-37.789463a113.503354 113.503354 0 0 1 113.368392-113.368392h102.368958L982.526063-128V64.63179300000002h113.368392a113.503354 113.503354 0 0 1 113.368392 113.368392V555.894824a113.503354 113.503354 0 0 1-113.368392 113.368392z m-566.841959-113.368392v-264.526248H364.614342L226.736784 181.02334199999996V291.36857599999996H113.368392a37.789464 37.789464 0 0 0-37.789464 37.789464V782.631608a37.789464 37.789464 0 0 0 37.789464 37.789464h604.631423a37.789464 37.789464 0 0 0 37.789464-37.789464v-113.368392h-113.368391a113.503354 113.503354 0 0 1-113.368392-113.368392z m604.631423-377.894639a37.856945 37.856945 0 0 0-37.789464-37.789464H906.947135v-109.68392L771.512396 140.21072100000004H642.420888a37.856945 37.856945 0 0 0-37.789464 37.789464V555.894824a37.789464 37.789464 0 0 0 37.789464 37.789464h453.473567a37.789464 37.789464 0 0 0 37.789464-37.789464z"  horiz-adv-x="1209" />

    
    <glyph glyph-name="false" unicode="&#58888;" d="M512 896C229.714286 896 0 666.285714 0 384s229.714286-512 512-512 512 229.714286 512 512S794.285714 896 512 896z m0-950.857143C270-54.85714299999995 73.142857 142 73.142857 384S270 822.857143 512 822.857143s438.857143-196.857143 438.857143-438.857143-196.857143-438.857143-438.857143-438.857143zM667.142857 590.857143L512 435.714286 356.857143 590.857143 305.142857 539.142857 460.285714 384 305.142857 228.85714299999995 356.857143 177.14285700000005 512 332.285714 667.142857 177.14285700000005 718.857143 228.85714299999995 563.714286 384 718.857143 539.142857 667.142857 590.857143z"  horiz-adv-x="1024" />

    
    <glyph glyph-name="exit" unicode="&#58889;" d="M988.902857 493.588571A492.514286 492.514286 0 0 1 758.88 793.428571a497.394286 497.394286 0 0 1-70.685714 33.737143l-25.245715-65.954285a426.502857 426.502857 0 0 0 60.571429-28.937143c202.068571-116.72 271.542857-376 154.891429-578.057143-78.331429-135.577143-220.891429-211.428571-367.28-211.428572A420.674286 420.674286 0 0 0 300.434286-0.6742860000000519C98.388571 116.04571399999998 28.914286 375.37142900000003 145.508571 577.3828570000001A423.714286 423.714286 0 0 0 360.811429 760.914286l-25.142858 65.988571A493.714286 493.714286 0 1 1 939.6 118.85714299999995a492.251429 492.251429 0 0 1 49.302857 374.685714zM476.674286 896H547.291429v-352.685714h-70.617143z"  horiz-adv-x="1024" />

    
    <glyph glyph-name="calendar" unicode="&#58890;" d="M179.692308 462.769231h147.692307v-147.692308H179.692308zM475.076923 462.769231h147.692308v-147.692308H475.076923zM770.461538 462.769231h147.692308v-147.692308H770.461538zM179.692308 241.230769h147.692307v-147.692307H179.692308zM475.076923 241.230769h147.692308v-147.692307H475.076923zM770.461538 241.230769h147.692308v-147.692307H770.461538zM980.923077 832H770.461538V896h-73.846153v-64H401.230769V896h-73.846154v-64H116.923077C55.84 832 0 782.313846 0 721.230769v-738.461538c0-61.083077 55.84-110.769231 116.923077-110.769231h864c61.083077 0 116.923077 49.686154 116.923077 110.769231V721.230769c0 61.083077-55.84 110.769231-116.923077 110.769231z m43.076923-849.230769c0-20.332308-22.707692-36.923077-43.076923-36.923077H116.923077c-20.369231 0-43.076923 16.590769-43.076923 36.923077V536.6153850000001h950.153846z m0 627.692307H73.846154v110.769231c0 20.332308 22.707692 36.923077 43.076923 36.923077h210.461538v-64h73.846154v64h295.384616v-64h73.846153v64h210.461539c20.369231 0 43.076923-16.590769 43.076923-36.923077z"  horiz-adv-x="1097" />

    
    <glyph glyph-name="clock" unicode="&#58891;" d="M826.728807 631.8292309999999a443.809238 443.809238 0 1 1 95.377549-141.470744 443.594906 443.594906 0 0 1-95.377549 141.470744zM512.05434-55.03200800000002c-205.198664 0-372.127235 166.940479-372.127235 372.127235S306.808047 689.23437 512.05434 689.23437s372.127235-166.940479 372.127236-372.127235S717.193468-55.03200800000002 512.05434-55.03200800000002zM511.840009 485.6551h-72.956085v-204.305616h0.047629v-70.538901h272.403519v72.967993H511.840009V485.6551zM852.508132 895.969077a170.417413 170.417413 0 0 1-162.761013-120.263826 493.462718 493.462718 0 0 0 241.277812-201.090642A170.274525 170.274525 0 0 1 852.508132 895.969077zM334.254396 775.705251A170.274525 170.274525 0 1 1 92.976584 574.626516 493.462718 493.462718 0 0 0 334.254396 775.705251z"  horiz-adv-x="1024" />

    
    <glyph glyph-name="fujian" unicode="&#58892;" d="M523.231248 15.792478999999958c-89.598874-89.450304-235.494183-89.598874-325.241627 0s-89.598874 235.562754 0 325.241627l216.854418 216.774418 216.774418 216.84299c59.736392 59.736392 157.049455 59.736392 216.774419 0a153.483785 153.483785 0 0 0 0-216.84299l-108.387209-108.387209L577.424853 286.85192900000004 462.306299 171.71051899999998a67.233441 67.233441 0 0 0-95.073091 0.14857L353.91909 185.13892199999998a67.130585 67.130585 0 0 0 0 94.981663l386.086577 386.06372-54.193605 54.193605-386.086577-386.086577a143.758193 143.758193 0 0 1 0.068571-203.426015l13.325547-13.256976A142.661064 142.661064 0 0 1 414.775468 75.426015h0.079999a142.729635 142.729635 0 0 1 101.655865 42.068043l115.107125 115.152838 162.580814 162.580814 108.38721 108.38721c89.667445 89.678873 89.667445 235.562754 0 325.241627-89.598874 89.450304-235.425613 89.598874-325.161628 0L306.388259 557.808524 143.807445 395.22771c-119.541355-119.541355-119.541355-314.007482 0-433.617408a307.104712 307.104712 0 0 1 433.617408 0l379.355232 379.423804-54.193604 54.193604z"  horiz-adv-x="1024" />

    
    <glyph glyph-name="hat" unicode="&#58893;" d="M1033.670434 536.157895a35.165986 35.165986 0 0 1 0 60.27782L543.477543 890.972924a35.165986 35.165986 0 0 1-36.213784 0L17.047321 596.447488a35.165986 35.165986 0 0 1 0-60.27782L160.701611 449.802854v-341.323158a35.165986 35.165986 0 0 1 16.835407-30.009407l329.550145-201.318501a35.165986 35.165986 0 0 1 36.649386 0l329.550146 201.318501A35.165986 35.165986 0 0 1 890.039691 108.47969599999999V448.319454v1.530492zM525.370651 819.816841L947.30362 566.3556699999999 525.370651 312.788542 103.437681 566.3556699999999z m294.395932-691.61735L525.370651-51.59794499999998 230.986491 128.19949099999997V407.620152l276.277268-165.999466a35.165986 35.165986 0 0 1 36.213784 0l276.277267 165.999466zM1019.54282 473.348877a35.165986 35.165986 0 0 1-35.165986-35.165986v-197.786598a35.165986 35.165986 0 0 1 70.320199 0v197.786598A35.165986 35.165986 0 0 1 1019.54282 473.348877z"  horiz-adv-x="1054" />

    
    <glyph glyph-name="image" unicode="&#58894;" d="M1068.414458 896H37.012048A37.012048 37.012048 0 0 1 0 858.987952v-949.975904a37.012048 37.012048 0 0 1 37.012048-37.012048h1031.40241a37.012048 37.012048 0 0 1 37.012048 37.012048V858.987952a37.012048 37.012048 0 0 1-37.012048 37.012048zM78.959036-49.04096400000003V79.15643399999999L299.045012 329.098795 753.812048-49.04096400000003z m947.508434 0H877.259566L603.629494 178.50910799999997l178.151325 230.091567L1026.46747 234.24925299999995z m0 380.249446L765.816289 516.93494 542.843373 229.03055400000005l-252.323469 209.858313L78.959036 198.64366299999995V817.040964h947.508434zM257.936964 541.535614c61.06988 0 110.542651 52.927229 110.54265 118.154796s-49.472771 118.154795-110.54265 118.154795-110.542651-52.927229-110.542651-118.154795 49.472771-118.154795 110.542651-118.154796z"  horiz-adv-x="1105" />

    
    <glyph glyph-name="home" unicode="&#58895;" d="M1093.013513 380.18369800000005L551.948064 896 10.870305 380.18369800000005C-2.46213 367.417552-3.693195 345.43072900000004 8.211205 331.11344099999997a31.145949 31.145949 0 0 1 45.844866-2.856071l108.333734 103.249435V-128H487.009377V219.54200500000002h129.877375V-128h324.668814V431.506805l108.333734-103.249435a31.084395 31.084395 0 0 1 21.592883-8.789806 31.527579 31.527579 0 0 1 24.251984 11.645877c11.867468 14.317288 10.661024 36.304112-2.720654 49.070257zM876.616879-58.481750000000034H681.813128V289.084876h-259.754749v-347.566626H227.266939V482.042029L551.948064 792.725944l324.668815-310.683915z"  horiz-adv-x="1103" />

    
    <glyph glyph-name="help" unicode="&#58896;" d="M512 896C229.714286 896 0 666.285714 0 384s229.714286-512 512-512 512 229.714286 512 512S794.285714 896 512 896z m0-950.857143C270-54.85714299999995 73.142857 142 73.142857 384S270 822.857143 512 822.857143s438.857143-196.857143 438.857143-438.857143-196.857143-438.857143-438.857143-438.857143z m-72.56 100.8h73.531429v73.142857h-73.531429zM525.714286 722.011429c-151.074286 2.434286-225.36-78.777143-222.857143-225.062858h81.714286c-2.502857 73.142857 48.285714 148.285714 152.285714 143.36 64.354286-7.428571 98.994286-45.931429 104-110.354285-5.005714-32.148571-47.462857-74.354286-96.96-123.862857-57.005714-57.005714-104.068571-108.994286-104.068572-153.565715v-60.297143h73.142858v41.714286c0 39.565714 49.497143 85.428571 106.502857 137.428572 61.862857 56.925714 101.714286 111.577143 101.714285 158.571428-5.005714 121.28-64.251429 187.074286-195.474285 192.068572z"  horiz-adv-x="1024" />

    
    <glyph glyph-name="jiankong" unicode="&#58897;" d="M1024 420.571429h-101.588571A411.588571 411.588571 0 0 1 548.571429 794.411429V896h-73.142858v-101.588571A411.588571 411.588571 0 0 1 101.588571 420.571429H0v-73.142858h101.588571A411.6 411.6 0 0 1 475.428571-26.411429V-128h73.142858v101.588571A411.588571 411.588571 0 0 1 922.411429 347.42857100000003H1024zM548.571429 47.08571400000005V213.33714299999997h-73.142858V47.08571400000005C317.714286 64.08000000000004 192.08 189.71428600000002 175.085714 347.42857100000003h166.251429v73.142858H175.085714C192.08 578.285714 317.714286 703.92 475.428571 720.914286v-166.251429h73.142858V720.914286C706.285714 703.92 831.92 578.285714 848.914286 420.571429H682.662857v-73.142858H848.914286C831.92 189.71428600000002 706.285714 64.08000000000004 548.571429 47.08571400000005z"  horiz-adv-x="1024" />

    
    <glyph glyph-name="info" unicode="&#58898;" d="M859.485714 322.651429V548.5142860000001C859.485714 740.102857 703.588571 896 512 896S164.514286 740.102857 164.514286 548.5142860000001v-225.862857A139.154286 139.154286 0 0 0 25.52 183.65714300000002v-69.497143h244.297143c0-69.497143 108.651429-242.16 242.182857-242.16s242.194286 172.662857 242.194286 242.16h244.285714V183.65714300000002a139.154286 139.154286 0 0 0-138.994286 138.994286zM512-60.67428600000005c-96.377143 0-174.8 105.325714-174.8 174.857143h349.588571c0-69.52-78.411429-174.857143-174.788571-174.857143zM180.8 183.65714300000002a207.794286 207.794286 0 0 1 53.211429 138.994286V548.5142860000001c0 153.28 124.708571 277.988571 277.988571 277.988571s277.988571-124.708571 277.988571-277.988571v-225.862857a207.782857 207.782857 0 0 1 53.211429-138.994286z"  horiz-adv-x="1024" />

    
    <glyph glyph-name="pc" unicode="&#58899;" d="M1048.411543 896H113.06399A113.192472 113.192472 0 0 1 0 782.93601v-575.598494a113.192472 113.192472 0 0 1 113.06399-113.06399h387.025747L292.938519-128h575.598495L661.385797 94.27352599999995H1048.411543a113.192472 113.192472 0 0 1 113.06399 113.06399V782.93601a113.192472 113.192472 0 0 1-113.06399 113.06399zM113.06399 813.771644h935.347553a30.835634 30.835634 0 0 0 30.835634-30.835634v-390.584693H82.228356V782.93601a30.835634 30.835634 0 0 0 30.835634 30.835634z m935.347553-637.269762H113.06399a30.835634 30.835634 0 0 0-30.835634 30.835634v102.785445h997.018821v-102.785445a30.835634 30.835634 0 0 0-30.835634-30.835634z"  horiz-adv-x="1161" />

    
    <glyph glyph-name="last" unicode="&#58900;" d="M0 384c0-282.285714 229.714286-512 512-512s512 229.714286 512 512S794.285714 896 512 896 0 666.285714 0 384z m73.142857 0C73.142857 626 270 822.857143 512 822.857143s438.857143-196.857143 438.857143-438.857143-196.857143-438.857143-438.857143-438.857143S73.142857 142 73.142857 384zM553.862857 640.148571L356.925714 457.142857H804.571429v-73.142857H357.074286l196.788571-182.925714-44.571428-47.897143-287.645715 267.462857 287.645715 267.394286 44.571428-47.885715z"  horiz-adv-x="1024" />

    
    <glyph glyph-name="monitor" unicode="&#58901;" d="M997.772059 896H107.601176A107.724543 107.724543 0 0 1 0 788.398824v-547.751915a107.724543 107.724543 0 0 1 107.601176-107.601176h890.170883A107.724543 107.724543 0 0 1 1105.373235 240.59756200000004v547.751915A107.724543 107.724543 0 0 1 997.772059 896zM107.601176 817.747964h890.170883a29.373813 29.373813 0 0 0 29.34914-29.34914V485.186063H779.978989L624.079418 738.484314 376.998892 403.15898 294.996482 485.186063H78.252036V788.398824a29.373813 29.373813 0 0 0 29.34914 29.34914zM997.772059 211.31010600000002H107.601176a29.373813 29.373813 0 0 0-29.34914 29.349139V406.897017h184.323454l123.367549-123.367549L618.244133 598.684208l118.00106-191.750181h290.876006v-166.299455A29.373813 29.373813 0 0 0 997.772059 211.31010600000002zM141.835671-49.747964000000024h821.689557v-78.252036H141.835671z"  horiz-adv-x="1105" />

    
    <glyph glyph-name="next" unicode="&#58902;" d="M512 896C229.714286 896 0 666.285714 0 384s229.714286-512 512-512 512 229.714286 512 512S794.285714 896 512 896z m0-950.857143C270-54.85714299999995 73.142857 142 73.142857 384S270 822.857143 512 822.857143s438.857143-196.857143 438.857143-438.857143-196.857143-438.857143-438.857143-438.857143zM470.137143 640.148571L667.074286 457.142857H219.428571v-73.142857h447.508572l-196.8-182.925714 44.571428-47.897143 287.645715 267.462857-287.645715 267.394286-44.571428-47.885715z"  horiz-adv-x="1024" />

    
    <glyph glyph-name="nav" unicode="&#58903;" d="M986.857143 530.285714L804 749.714286H511.428571V861.862857C511.428571 880.72 495.051429 896 474.857143 896s-36.571429-15.28-36.571429-34.137143V749.714286H37.142857v-438.857143h401.142857v-404.72c0-18.845714 16.377143-34.137143 36.571429-34.137143s36.571429 15.28 36.571428 34.137143V310.85714299999995h292.571429zM511.428571 384H110.285714V676.571429h663.417143l146.285714-146.285715-146.285714-146.285714z"  horiz-adv-x="1024" />

    
    <glyph glyph-name="love" unicode="&#58904;" d="M551.936-128a87.422458 87.422458 0 0 0-53.951229 18.740434l-0.135711 0.111036c-0.65388 0.518169-2.060337 1.566843-4.120674 3.121349a2580.035855 2580.035855 0 0 0-214.48482 180.618795c-128.407133 121.300819-213.152386 230.708434-251.891662 325.163181-0.826602 1.875277-1.418795 3.479133-1.801253 4.490795l-0.135711 0.357783C9.067952 445.563373 0.777253 484.463036 0.777253 520.241349c0 0.974651 0 2.196048 0.086361 3.565494a159.583614 159.583614 0 0 0-0.863614 16.038555C0 736.231325 151.391614 896 337.488193 896a316.712096 316.712096 0 0 0 132.28106-28.980434A334.934361 334.934361 0 0 0 552.713253 813.117687a334.218795 334.218795 0 0 0 82.820627 53.889542A316.847807 316.847807 0 0 0 767.938313 896C954.034892 896 1105.426506 736.231325 1105.426506 539.857735c0-6.168675-0.407133-11.239325-0.703229-15.002217 0-1.369446 0.086361-2.960964 0.086362-4.774554 0-32.274506-6.79788-66.14053-20.763759-103.498024a380.890988 380.890988 0 0 0-19.246266-44.180048l-0.209734-0.41947-0.333109-1.048675-1.973976-3.429783c-0.444145-0.777253-0.925301-1.751904-1.591518-3.12135l-1.307759-2.590843c-2.899277-5.712193-6.477108-12.769157-11.239325-20.356626-49.053301-85.682892-131.738217-182.296675-245.772338-287.151808C743.584386 0.30843400000003385 679.343807-53.359035999999946 611.439036-105.01551800000004c-2.46747-1.912289-4.207036-3.195373-4.93494-3.812241l-0.394795-0.320771A88.680867 88.680867 0 0 0 551.936-128z m-9.339373 78.61359a14.57041 14.57041 0 0 1 18.654072 0c1.110361 0.888289 2.714217 2.109687 6.168674 4.712868 93.023614 70.767036 319.956819 253.853301 417.471229 424.737928l0.937639 1.554506c3.034988 4.774554 5.613494 9.86988 8.093301 14.804819l0.888289 1.751903c0.505831 1.036337 1.085687 2.208386 1.739567 3.49147l0.900626 2.800579 2.294747 3.392771a303.807229 303.807229 0 0 1 15.12559 34.76665l0.209735 0.592193c10.770506 28.733687 16.038554 53.889542 16.038555 76.898699 0 1.233735 0 2.171373-0.098699 3.232385l-0.135711 2.46747 0.18506 2.46747q0.086361 1.233735 0.209735 2.627856c0.23441 2.88694 0.468819 5.872578 0.468819 8.969253C1031.735518 694.753157 913.395663 820.742169 767.938313 820.742169 697.775807 820.742169 629.204819 789.615036 579.695036 735.293687l-26.969446-29.609639-26.981783 29.609639C476.221687 789.615036 407.576675 820.742169 337.488193 820.742169 192.030843 820.742169 73.690988 694.753157 73.690988 539.857735a106.767422 106.767422 0 0 1 0.78959-11.399711l0.481157-4.453783-0.493494-3.886265c0-26.068819 6.526458-55.518072 19.307952-87.397783l0.172723-0.444145 0.55518-1.468144 0.616868-1.49282c77.120771-188.971181 358.128578-411.240867 442.417349-474.864578 2.492145-1.86294 4.194699-3.158361 5.058314-3.836916z"  horiz-adv-x="1105" />

    
    <glyph glyph-name="mobile" unicode="&#58905;" d="M670.927829 896H225.910686A98.765714 98.765714 0 0 1 127.144971 797.234286v-826.468572q0-2.594286 0.137143-5.165714V-91.42857100000003a36.571429 36.571429 0 0 1 36.571429-36.571429h569.142857a36.571429 36.571429 0 0 1 36.571429 36.571429v57.04q0.137143 2.56 0.137142 5.165714V797.234286A98.765714 98.765714 0 0 1 670.927829 896zM447.853543-74.28571399999998a73.142857 73.142857 0 1 0 73.142857 73.142857 73.142857 73.142857 0 0 0-73.142857-73.142857z m251.428571 203.988571H197.533543V797.234286a28.411429 28.411429 0 0 0 28.377143 28.377143h445.017143a28.411429 28.411429 0 0 0 28.377142-28.377143z"  horiz-adv-x="1024" />

    
    <glyph glyph-name="quanxian" unicode="&#58906;" d="M893.807617 757.165714L512.001903 896 130.196189 757.165714s-62.982857-431.634286 0-555.348571C183.750474 96.66285700000003 512.001903-128 512.001903-128s328.251429 224.662857 381.805714 329.805714c62.971429 123.725714 0 555.36 0 555.36z m-65.142857-522.148571c-6.114286-12-37.897143-60.4-190.262857-179.428572-48.08-37.565714-94.582857-71.485714-126.365714-94.171428-31.782857 22.697143-78.285714 56.605714-126.365715 94.171428C233.270474 174.60571400000003 201.487617 223.005714 195.38476 234.994286c-7.085714 13.908571-29.177143 75.622857-15.862857 285.302857 4.64 73.062857 12.205714 141.257143 17.394286 183.302857L512.001903 818.171429l315.085714-114.582858c5.188571-42.045714 12.765714-110.24 17.394286-183.302857 13.302857-209.668571-8.777143-271.382857-15.851429-285.28zM546.710474 412.571429a140.697143 140.697143 0 1 1-69.417143 0v-314.891429h69.417143V234.66285700000003h138.834286v73.142857H546.710474z m-102.262857 136.4a67.554286 67.554286 0 1 0 67.554286-67.554286 67.634286 67.634286 0 0 0-67.554286 67.554286z"  horiz-adv-x="1024" />

    
    <glyph glyph-name="message" unicode="&#58907;" d="M1050.25641 896H126.030769A126.175179 126.175179 0 0 1 0 769.969231v-588.14359a126.175179 126.175179 0 0 1 126.030769-126.030769h267.158975L588.14359-128l194.875077 183.794872H1050.25641a126.175179 126.175179 0 0 1 126.030769 126.030769V769.969231a126.175179 126.175179 0 0 1-126.030769 126.030769z m42.010257-714.174359a42.010256 42.010256 0 0 0-42.010257-42.010256H749.620513L588.14359-12.471795000000043 426.548513 139.815385H126.030769a42.010256 42.010256 0 0 0-42.010256 42.010256V769.969231a42.010256 42.010256 0 0 0 42.010256 42.010256h924.225641a42.010256 42.010256 0 0 0 42.010257-42.010256zM294.071795 559.917949a84.020513 84.020513 0 1 1 84.020513-84.020513 84.020513 84.020513 0 0 1-84.020513 84.020513zM882.215385 559.917949a84.020513 84.020513 0 1 1 84.020512-84.020513 84.020513 84.020513 0 0 1-84.020512 84.020513zM588.14359 559.917949a84.020513 84.020513 0 1 1 84.020513-84.020513 84.020513 84.020513 0 0 1-84.020513 84.020513z"  horiz-adv-x="1176" />

    
    <glyph glyph-name="log" unicode="&#58908;" d="M315.073981 659.691327h472.617346v-78.765308H315.073981zM315.073981 423.382654h472.617346v-78.765308H315.073981zM315.073981 187.073981h472.617346v-78.765308H315.073981zM1142.154336 383.99362599999995c0 73.156515-50.377164 134.305113-118.154336 151.921824V777.8456639999999A118.281809 118.281809 0 0 1 905.845664 896H196.919645a118.281809 118.281809 0 0 1-118.154336-118.154336v-196.919645H0V502.109721h78.765309v-236.257684H0v-78.765308h78.765309v-196.932393a118.281809 118.281809 0 0 1 118.154336-118.154336h708.926019a118.281809 118.281809 0 0 1 118.154336 118.154336V232.07180300000005C1091.777172 249.71400800000004 1142.154336 310.900848 1142.154336 383.99362599999995zM905.845664-49.234691H196.919645a39.440017 39.440017 0 0 0-39.389028 39.389027V187.073981h78.765309v78.778056h-78.752562V502.109721h78.765309v78.816298h-78.765309V777.8456639999999a39.440017 39.440017 0 0 0 39.389028 39.389027h708.913272a39.440017 39.440017 0 0 0 39.389027-39.389027v-241.917467c-67.777172-17.616711-118.154336-78.765309-118.154336-151.921823S877.45752 249.71400800000004 945.234691 232.07180300000005v-241.917467a39.440017 39.440017 0 0 0-39.389027-39.389027z m78.765308 354.463009a78.765309 78.765309 0 1 0 78.765309 78.765308 78.841792 78.841792 0 0 0-78.765309-78.765308z"  horiz-adv-x="1142" />

    
    <glyph glyph-name="loseeyes" unicode="&#58909;" d="M762.257971 617.661029L961.797053 848.321512 906.625744 896l-209.525716-242.264109c-58.621651 28.25181-121.445204 46.915541-185.100028 46.915541-262.282925 0-510.149569-316.645738-510.149569-316.645738s109.465799-139.847028 259.891598-233.666723L62.202947-80.32151199999998l55.12576-47.678488 209.525716 242.264109c58.621651-28.25181 121.445204-46.915541 185.100028-46.915541 262.282925 0 510.149569 316.645738 510.149569 316.645738s-109.42025 139.847028-259.846049 233.666723zM207.390603 279.857748a1150.706122 1150.706122 0 0 0-109.158343 104.147946 1150.706122 1150.706122 0 0 0 109.158343 104.147945c76.659083 63.688985 191.738805 139.619283 304.609397 139.619283 45.685716 0 91.724437-12.434896 135.428768-31.463019l-72.969608-84.368263a142.34084 142.34084 0 0 1-180.032694-208.170631l-84.3341-97.509169c-38.363703 23.025054-73.334001 49.204381-102.701763 73.595908zM581.46233 384.005694a69.46233 69.46233 0 0 0-80.576303-68.562736l77.365093 89.458371a69.21181 69.21181 0 0 0 3.21121-20.895635z m-138.92466 0a69.46233 69.46233 0 0 0 80.576303 68.562735L445.74888 363.07589700000005a69.21181 69.21181 0 0 0-3.21121 20.929797z m374.071727-104.147946C739.950314 216.18015000000003 624.870592 140.23846500000002 512 140.23846500000002c-45.685716 0-91.724437 12.434896-135.428768 31.46302L449.54084 256.03558499999997a142.34084 142.34084 0 0 1 180.032694 208.170631l84.3341 97.509169c38.340929-23.025054 73.345388-49.215769 102.701763-73.607295a1150.694735 1150.694735 0 0 0 109.158343-104.147945 1150.694735 1150.694735 0 0 0-109.158343-104.102397z"  horiz-adv-x="1024" />

    
    <glyph glyph-name="list" unicode="&#58910;" d="M193.230769 896H39.384615A39.384615 39.384615 0 0 1 0 856.6153850000001v-153.846154a43.076923 43.076923 0 0 1 43.076923-43.076923h150.153846a43.076923 43.076923 0 0 1 43.076923 43.076923V852.923077a43.076923 43.076923 0 0 1-43.076923 43.076923zM0 502.153846m43.076923 0l150.153846 0q43.076923 0 43.076923-43.076923l0-150.153846q0-43.076923-43.076923-43.076923l-150.153846 0q-43.076923 0-43.076923 43.076923l0 150.153846q0 43.076923 43.076923 43.076923ZM0 108.30769199999997m43.076923 0l150.153846 0q43.076923 0 43.076923-43.076923l0-150.153846q0-43.076923-43.076923-43.076923l-150.153846 0q-43.076923 0-43.076923 43.076923l0 150.153846q0 43.076923 43.076923 43.076923ZM394.670769 738.461538H1024a39.384615 39.384615 0 0 1 39.384615 40.492308c-0.603077 21.452308-18.744615 38.276923-40.20923 38.276923H393.846154a39.384615 39.384615 0 0 1-39.384616-40.492307c0.603077-21.452308 18.744615-38.276923 40.209231-38.276924zM1023.175385 423.384615H393.846154a39.384615 39.384615 0 0 1-39.384616-40.492307c0.590769-21.452308 18.732308-38.276923 40.184616-38.276923H1024a39.384615 39.384615 0 0 1 39.384615 40.492307c-0.603077 21.452308-18.744615 38.276923-40.20923 38.276923zM1023.175385 29.53846199999998H393.846154a39.384615 39.384615 0 0 1-39.384616-40.492308c0.590769-21.452308 18.732308-38.276923 40.184616-38.276923H1024a39.384615 39.384615 0 0 1 39.384615 40.492307c-0.603077 21.452308-18.744615 38.276923-40.20923 38.276924z"  horiz-adv-x="1063" />

    
    <glyph glyph-name="pc1" unicode="&#58911;" d="M1048.411543 896H113.06399A113.192472 113.192472 0 0 1 0 782.93601v-575.598494a113.192472 113.192472 0 0 1 113.06399-113.06399h387.025747L292.938519-128h575.598495L661.385797 94.27352599999995H1048.411543a113.192472 113.192472 0 0 1 113.06399 113.06399V782.93601a113.192472 113.192472 0 0 1-113.06399 113.06399zM82.228356 782.93601a30.835634 30.835634 0 0 0 30.835634 30.835634h935.347553a30.835634 30.835634 0 0 0 30.835634-30.835634v-390.584693H82.228356z"  horiz-adv-x="1161" />

    
    <glyph glyph-name="openeyes" unicode="&#58912;" d="M824.88582 778.159169c182.505988 0 368.584026-122.775416 492.53785-225.757256a1860.633078 1860.633078 0 0 0 176.503471-168.401913 1860.614665 1860.614665 0 0 0-176.503471-168.401913C1193.469846 112.61624800000004 1007.391808-10.15916900000002 824.88582-10.15916900000002s-368.584026 122.775416-492.53785 225.757256a1860.633078 1860.633078 0 0 0-176.50347 168.401913 1860.633078 1860.633078 0 0 0 176.50347 168.401913C456.301795 655.383752 642.379832 778.159169 824.88582 778.159169m0 117.840831C400.787715 896 0 384 0 384s400.787715-512 824.88582-512 824.88582 512 824.88582 512S1248.983925 896 824.88582 896zM824.88582 496.317042a112.317042 112.317042 0 1 0-112.317042-112.317042 112.445931 112.445931 0 0 0 112.317042 112.317042m0 117.840832a230.157874 230.157874 0 1 1 230.157874-230.157874 230.157874 230.157874 0 0 1-230.157874 230.157874z"  horiz-adv-x="1649" />

    
    <glyph glyph-name="shuxing" unicode="&#58913;" d="M34.131429 896v-1024h955.737142V896z m514.434285-73.142857h199.931429v-95.085714H548.565714zM275.502857 822.857143h199.92v-95.085714H275.502857zM107.274286 822.857143h95.085714v-95.085714H107.274286z m809.451428-877.714286H107.274286V654.628571h809.451428z m0 782.628572h-95.085714V822.857143h95.085714zM306.954286 179.18857100000002l-60.811429-60.811428 51.714286-51.714286 60.8 60.8a223.142857 223.142857 0 0 1 94.034286-39.051428v-85.897143h73.142857v85.897143a223.131429 223.131429 0 0 1 93.954285 38.994285l60.811429-60.811428 51.714286 51.714285-60.8 60.8A223.142857 223.142857 0 0 1 710.577143 273.14285700000005h108.571428v73.142857h-108.571428a223.142857 223.142857 0 0 1-39.028572 93.988572l60.777143 60.777143-51.714285 51.714285-60.788572-60.765714a223.131429 223.131429 0 0 1-93.988571 39.028571V616.914286h-73.142857v-85.897143A223.131429 223.131429 0 0 1 358.702857 492l-60.777143 60.777143-51.714285-51.714286 60.777142-60.777143A223.142857 223.142857 0 0 1 267.96 346.285714h-63.165714v-73.142857h63.165714a223.142857 223.142857 0 0 1 38.994286-93.954286z m34.377143 161.645715c14.388571 68.468571 75.245714 120 147.931428 120 83.348571 0 151.165714-67.805714 151.165714-151.165715s-67.817143-151.12-151.165714-151.12c-72.685714 0-133.542857 51.565714-147.931428 120z"  horiz-adv-x="1024" />

    
    <glyph glyph-name="plat" unicode="&#58914;" d="M1021.718781 258.85152400000004h-63.714848V896H65.996067v-637.148476H2.281219v-191.144543h257.134921l-77.982423-141.742781a36.408484 36.408484 0 1 1 63.805869-35.088676l87.607916 159.287119a36.23782 36.23782 0 0 1 4.55106 17.544338h349.293897a36.23782 36.23782 0 0 1 4.551061-17.544338l87.607915-159.287119a36.408484 36.408484 0 0 1 63.805869 35.088676L764.58386 67.70698100000004h257.134921zM138.813035 823.183031h746.37393v-555.229386H138.813035z m810.088777-682.659081H75.098188v45.510605h873.803624zM775.961512 772.71177a100.123332 100.123332 0 0 1-85.992289-163.83818 102.296463 102.296463 0 0 1 8.464972-8.988344l-63.976533-85.332385a100.931145 100.931145 0 0 1-53.72527 0l-79.154321 105.539094a100.259864 100.259864 0 0 1-8.203286 116.905367 100.123332 100.123332 0 0 1-162.040511-116.780213L254.865079 518.261975a100.123332 100.123332 0 0 1-6.826591-199.825691q4.642082-0.432351 9.238653-0.420973a100.123332 100.123332 0 0 1 76.776392 164.213642 100.37364 100.37364 0 0 1-8.453595 8.976967l63.976533 85.332385a99.395162 99.395162 0 0 1 17.749136-3.254008q4.642082-0.432351 9.238653-0.420973a99.395162 99.395162 0 0 1 26.69197 3.629471l79.165699-105.539094A100.123332 100.123332 0 0 1 598.47015 318.42490599999996q4.642082-0.432351 9.238653-0.420973a100.123332 100.123332 0 0 1 99.543072 91.021211q0.432351 4.642082 0.420973 9.238653a99.06521 99.06521 0 0 1-15.041255 52.61026L769.134921 572.874701a100.18022 100.18022 0 0 1 97.426828 91.021211q0.432351 4.642082 0.420973 9.238653a100.123332 100.123332 0 0 1-91.02121 99.543072z"  horiz-adv-x="1024" />

    
    <glyph glyph-name="role" unicode="&#58915;" d="M917.352883 232.59668a358.8174 358.8174 0 0 1-159.001821 84.698601 170.847438 170.847438 0 1 1-180.182565 0 358.8174 358.8174 0 0 1-159.014007-84.698601 327.984671 327.984671 0 0 1-76.411544-104.697222 311.386183 311.386183 0 0 1-19.498959-55.88889H322.951503v-1.413674a308.436965 308.436965 0 0 1-8.445487-71.90241h72.79205v0.194989h561.911241v-0.194989h72.79205a308.132294 308.132294 0 0 1-28.23693 129.180601 327.996858 327.996858 0 0 1-76.411544 104.721595zM668.253686 560.617911a98.116323 98.116323 0 1 0-98.055388-98.116322 98.20163 98.20163 0 0 0 98.055388 98.116322zM399.009628 72.02275499999996c34.635025 105.842785 142.22053 183.229277 269.244058 183.229277s234.62122-77.386492 269.244059-183.229277zM138.308551 624.233264h203.825052v-72.79205H138.308551zM138.308551 352.454341h203.825052v-72.79205H138.308551zM987.597882 896H104.343802A104.453484 104.453484 0 0 1 0 791.656198v-815.300209a104.453484 104.453484 0 0 1 104.343802-104.343802H274.204106v72.779863H104.343802a31.576126 31.576126 0 0 0-31.539565 31.539566v815.300208a31.576126 31.576126 0 0 0 31.539565 31.576126h883.25408a31.576126 31.576126 0 0 0 31.539565-31.539566v-101.918619H1091.941684V791.656198A104.453484 104.453484 0 0 1 987.597882 896z"  horiz-adv-x="1091" />

    
    <glyph glyph-name="recycle" unicode="&#58916;" d="M987.428571 749.714286H566.857143a54.857143 54.857143 0 0 1 54.857143 54.857143V841.142857a54.857143 54.857143 0 0 1-54.857143 54.857143h-109.714286a54.857143 54.857143 0 0 1-54.857143-54.857143v-36.571428a54.857143 54.857143 0 0 1 54.857143-54.857143H36.571429a36.571429 36.571429 0 0 1 0-73.142857h950.857142a36.571429 36.571429 0 0 1 0 73.142857zM804.571429 640a36.571429 36.571429 0 0 1-36.571429-36.571429v-621.714285a36.64 36.64 0 0 0-36.571429-36.571429H292.571429a36.64 36.64 0 0 0-36.571429 36.571429V603.4285709999999a36.571429 36.571429 0 0 1-73.142857 0v-621.714285a109.84 109.84 0 0 1 109.714286-109.714286h438.857142a109.84 109.84 0 0 1 109.714286 109.714286V603.4285709999999a36.571429 36.571429 0 0 1-36.571428 36.571429zM402.285714 18.285713999999984V603.4285709999999a36.571429 36.571429 0 0 1-73.142857 0v-585.142857a36.571429 36.571429 0 0 1 73.142857 0zM548.571429 18.285713999999984V603.4285709999999a36.571429 36.571429 0 0 1-73.142858 0v-585.142857a36.571429 36.571429 0 0 1 73.142858 0zM694.857143 18.285713999999984V603.4285709999999a36.571429 36.571429 0 0 1-73.142857 0v-585.142857a36.571429 36.571429 0 0 1 73.142857 0z"  horiz-adv-x="1024" />

    
    <glyph glyph-name="refuse" unicode="&#58917;" d="M768.043321 827.426254A509.445617 509.445617 0 0 1 512.617632 895.999977C335.651711 895.999977 163.451663 804.191191 68.591346 639.991411-72.670523 395.148933 11.263714 82.007027 256.026189-59.38056099999994a509.445617 509.445617 0 0 1 255.402832-68.573723c176.965921 0 349.131682 91.808786 443.969141 256.008566C1096.774321 372.839615 1012.77151 685.9929500000001 768.043321 827.426254z m-39.795617-825.307615A441.934787 441.934787 0 0 0 511.429021-54.888982000000055a438.711822 438.711822 0 0 0-396.424693 625.849512L872.458244 133.688756a435.534573 435.534573 0 0 0-144.21054-131.547259zM947.592186 329.69531400000005a434.151669 434.151669 0 0 0-38.549861-132.690154L151.588409 634.276934A438.997546 438.997546 0 0 0 947.592186 329.69531400000005z"  horiz-adv-x="1024" />

    
    <glyph glyph-name="radio" unicode="&#58918;" d="M688.114874 891.34153A39.415418 39.415418 0 0 1 647.697257 889.403067L184.99796 580.923683H0V187.07279700000004h184.99796l462.699297-308.453011a39.323111 39.323111 0 0 1 21.837381-6.593412 38.769264 38.769264 0 0 1 18.580236 4.628575 39.309924 39.309924 0 0 1 20.808809 34.694535V856.620621a39.375858 39.375858 0 0 1-20.808809 34.720909zM78.764902 502.15878h78.764903v-236.307894H78.764902z m551.393878-517.160881L236.307894 247.54757400000005v272.967266L630.15878 783.038141zM1006.959102 711.235882a39.389045 39.389045 0 1 1-43.925312-65.380276 315.165104 315.165104 0 0 0 0.764835-523.1477A39.349484 39.349484 0 0 1 985.886556 50.72103200000004a38.835198 38.835198 0 0 1 21.995624 6.764841 393.903633 393.903633 0 0 1-0.923078 653.763196zM882.660095 586.805006A39.389045 39.389045 0 1 1 838.682035 521.4247310000001a165.283658 165.283658 0 0 0 0.382418-274.285949 39.375858 39.375858 0 0 1 22.074744-72.000062 38.835198 38.835198 0 0 1 21.995623 6.764841 243.956252 243.956252 0 0 1-0.540659 404.967379z"  horiz-adv-x="1181" />

    
    <glyph glyph-name="start" unicode="&#58919;" d="M846.048221-127.976047a35.725387 35.725387 0 0 0-16.63512 4.10788L536.555952 30.039625 243.698802-123.89211899999998a35.773292 35.773292 0 0 0-51.893429 37.713457l55.929452 326.031578L10.795151 470.780473a35.773292 35.773292 0 0 0 19.820823 61.007415L358.108664 579.369839 504.483345 876.059414a35.773292 35.773292 0 0 0 64.145213 0L715.003239 579.369839l327.408856-47.581951A35.773292 35.773292 0 0 0 1062.316753 470.780473L825.377079 239.85291600000005l55.929452-326.031578a35.773292 35.773292 0 0 0-35.25831-41.797385zM536.555952 106.221047a35.749339 35.749339 0 0 0 16.647096-4.10788l245.335079-128.9611-46.851395 273.132137a35.773292 35.773292 0 0 0 10.287666 31.665411L960.517964 471.415218l-274.257912 39.869196a35.773292 35.773292 0 0 0-26.934762 19.56932L536.555952 779.410447 413.882424 530.853734a35.761316 35.761316 0 0 0-26.934762-19.56932l-274.257912-39.869196 198.447755-193.465603a35.761316 35.761316 0 0 0 10.287666-31.665411l-46.851395-273.132137L519.908856 102.11316699999998a35.761316 35.761316 0 0 0 16.647096 4.10788z"  horiz-adv-x="1073" />

    
    <glyph glyph-name="text" unicode="&#58920;" d="M887.468571 896H248.222857a102.514286 102.514286 0 0 1-102.4-102.4v-102.4H34.131429v-68.262857h111.691428v-68.262857H34.131429v-68.274286h111.691428v-68.262857H34.131429v-68.262857h111.691428v-68.274286H34.131429v-68.262857h111.691428V-25.600000000000023a102.514286 102.514286 0 0 1 102.4-102.4h639.245714a102.514286 102.514286 0 0 1 102.4 102.4V793.6A102.514286 102.514286 0 0 1 887.468571 896z m34.137143-921.6a34.194286 34.194286 0 0 0-34.137143-34.137143H248.222857a34.194286 34.194286 0 0 0-34.137143 34.137143V213.33714299999997h68.274286V281.6h-68.262857v68.262857h68.262857v68.274286h-68.262857V486.4h68.262857v68.262857h-68.262857v68.274286h68.262857V691.2h-68.262857V793.6a34.194286 34.194286 0 0 0 34.137143 34.137143h639.234285a34.194286 34.194286 0 0 0 34.125715-34.137143zM362.051429 759.462857H853.331429V486.4H362.051429z"  horiz-adv-x="1024" />

    
    <glyph glyph-name="users" unicode="&#58921;" d="M896.581706 633.645391a143.880314 143.880314 0 1 1-163.283644 0 259.080658 259.080658 0 0 1-28.335022-10.952102 232.322541 232.322541 0 0 1-323.746106-10.520917 258.908183 258.908183 0 0 1-48.908712 21.473019 143.880314 143.880314 0 1 1-163.283644 0C71.010041 602.1319189999999 0.234084 515.796339 0.000012 414.172166v-0.492783a19.267815 19.267815 0 0 1 17.543075-19.206217A19.883794 19.883794 0 0 1 19.711332 394.386929h302.999942a233.542179 233.542179 0 0 1 93.776603-135.084137c-158.602206-50.966081-273.075694-190.596141-273.49456-354.988547-0.086237-0.887009-0.135515-1.798658-0.135516-2.710307v-1.231957a28.335022 28.335022 0 0 1 28.335022-28.335022H925.200078a28.335022 28.335022 0 0 1 28.11327 24.823943 31.340998 31.340998 0 0 1 0.714535 6.65257c0 164.737354-114.572045 304.737002-273.49456 355.78932A233.455942 233.455942 0 0 1 774.371524 394.386929H1045.931911a21.115751 21.115751 0 0 1 2.168245 0.123196A19.280135 19.280135 0 0 1 1065.64323 413.679383v0.492783c-0.234072 101.624172-71.010029 187.959752-169.061524 219.473225zM709.607519 751.88867a105.320045 105.320045 0 1 0 105.320045-105.307726A105.44324 105.44324 0 0 0 709.607519 751.88867z m-564.236524 0a105.320045 105.320045 0 1 0 105.320044-105.307726A105.44324 105.44324 0 0 0 145.370995 751.88867z m170.441317-301.361439c0-6.480096 0.29567-12.873956 0.813092-19.218536H39.422652c9.757103 98.926185 100.761802 176.699661 211.243748 176.699661a225.743888 225.743888 0 0 0 105.948343-25.994303 231.447851 231.447851 0 0 1-40.802431-131.486822zM890.434238-70.06104000000005h-683.7364c14.697253 161.004523 162.408954 287.908462 341.892839 287.908463S875.724666 90.90652399999999 890.434238-70.06104000000005zM717.800037 431.345653a170.379719 170.379719 0 0 0-169.270958-151.111904C454.592322 280.19679099999996 378.210958 356.61511299999995 378.210958 450.527231a170.256523 170.256523 0 0 0 270.907449 137.424857 172.547964 172.547964 0 0 0 28.458218-26.314612 169.702143 169.702143 0 0 0 41.307534-111.110245 173.706004 173.706004 0 0 0-1.084122-19.181578z m62.657357 0c0.529742 6.332261 0.800772 12.75076 0.800772 19.218537A231.608006 231.608006 0 0 1 732.608165 592.732083a227.776618 227.776618 0 0 0 82.331719 15.276273c110.481947 0 201.425048-77.773476 211.280707-176.662703z"  horiz-adv-x="1065" />

    
    <glyph glyph-name="version" unicode="&#58922;" d="M938.582857 662.994286L818.365714 783.28 706.045714 895.668571a1.142857 1.142857 0 0 1-0.8 0.331429H98.285714A22.857143 22.857143 0 0 1 75.428571 873.142857v-978.285714a22.857143 22.857143 0 0 1 22.857143-22.857143h827.428572a22.857143 22.857143 0 0 1 22.857143 22.857143V652.571429a1.142857 1.142857 0 0 1-0.331429 0.8zM693.862857 808.571429a1.142857 1.142857 0 0 0 1.942857 0.8l75.897143-75.942858 90.285714-90.354285a1.142857 1.142857 0 0 0-0.8-1.942857H694.994286a1.142857 1.142857 0 0 0-1.142857 1.142857zM143.657143-58.59428600000001V826.594286a1.142857 1.142857 0 0 0 1.142857 1.142857h479.702857a1.142857 1.142857 0 0 0 1.142857-1.142857v-250.285715a1.142857 1.142857 0 0 1 1.142857-1.142857 1.142857 1.142857 0 0 0 1.142858-1.142857 1.142857 1.142857 0 0 1 1.142857-1.142857h250.137143a1.142857 1.142857 0 0 0 1.142857-1.142857v-630.331429a1.142857 1.142857 0 0 0-1.142857-1.142857H144.788571a1.142857 1.142857 0 0 0-1.131428 1.142857zM538.56 215.46285699999999l140.571429 315.588572a1.142857 1.142857 0 0 1-1.04 1.6h-50.731429a1.142857 1.142857 0 0 1-1.051429-0.685715L520.834286 284.57142899999997a105.325714 105.325714 0 0 1-8.708572-28.937143H510.857143a119.474286 119.474286 0 0 1-7.714286 28.571428l-103.474286 247.737143a1.142857 1.142857 0 0 1-1.051428 0.697143h-52.754286a1.142857 1.142857 0 0 1-1.04-1.588571l137.885714-315.588572a1.142857 1.142857 0 0 1 1.04-0.685714h53.714286a1.142857 1.142857 0 0 1 1.097143 0.685714zM320.857143 132.42285700000002m1.142857 0l380.011429 0q1.142857 0 1.142857-1.142857l0-65.977143q0-1.142857-1.142857-1.142857l-380.011429 0q-1.142857 0-1.142857 1.142857l0 65.977143q0 1.142857 1.142857 1.142857Z"  horiz-adv-x="1024" />

    
    <glyph glyph-name="wait" unicode="&#58923;" d="M512 896C229.211429 896 0 666.788571 0 384s229.211429-512 512-512 512 229.291429 512 512S794.708571 896 512 896z m310.297143-822.297143a437.257143 437.257143 0 1 0 94.091428 139.531429 437.611429 437.611429 0 0 0-94.091428-139.531429zM768 347.42857100000003H475.428571V640a36.571429 36.571429 0 0 1-73.142857 0v-329.142857a36.571429 36.571429 0 0 1 36.571429-36.571429h329.142857a36.571429 36.571429 0 0 1 0 73.142857z"  horiz-adv-x="1024" />

    
    <glyph glyph-name="true" unicode="&#58924;" d="M512 896C229.714286 896 0 666.285714 0 384s229.714286-512 512-512 512 229.714286 512 512S794.285714 896 512 896z m0-950.857143C270-54.85714299999995 73.142857 142 73.142857 384S270 822.857143 512 822.857143s438.857143-196.857143 438.857143-438.857143-196.857143-438.857143-438.857143-438.857143zM435.211429 282.13714300000004L281.851429 435.428571l-51.702858-51.714285L434.971429 179.005714l0.24 0.205715 0.251428-0.205715 358.388572 358.274286-51.702858 51.714286-306.937142-306.857143z"  horiz-adv-x="1024" />

    
    <glyph glyph-name="user" unicode="&#58925;" d="M673.001065 359.565327C752.144116 411.967845 804.571429 501.611235 804.571429 603.4285709999999 804.571429 764.7519609999999 673.32339 896 512 896S219.428571 764.7519609999999 219.428571 603.4285709999999c0-101.817337 52.427312-191.460726 131.570364-243.863244C147.389056 296.71205799999996 0 118.466634 0-91.42857100000003a36.571429 36.571429 0 0 1 73.142857 0C73.142857 130.39263900000003 269.99632 310.85714299999995 512 310.85714299999995s438.857143-180.464504 438.857143-402.285714a36.571429 36.571429 0 0 1 73.142857 0c0 209.895206-147.389056 388.14063-350.998935 450.993898zM292.571429 603.4285709999999c0 120.995642 98.43293 219.428571 219.428571 219.428572s219.428571-98.43293 219.428571-219.428572-98.43293-219.428571-219.428571-219.428571-219.428571 98.43293-219.428571 219.428571z"  horiz-adv-x="1024" />

    
    <glyph glyph-name="quanxian1" unicode="&#58926;" d="M893.807617 757.165714L512.001903 896 130.196189 757.165714s-62.982857-431.634286 0-555.348571C183.750474 96.66285700000003 512.001903-128 512.001903-128s328.251429 224.662857 381.805714 329.805714c62.971429 123.725714 0 555.36 0 555.36z m-65.142857-522.148571c-6.114286-12-37.897143-60.4-190.262857-179.428572-48.08-37.565714-94.582857-71.485714-126.365714-94.171428-31.782857 22.697143-78.285714 56.605714-126.365715 94.171428C233.270474 174.60571400000003 201.487617 223.005714 195.38476 234.994286c-7.085714 13.908571-29.177143 75.622857-15.862857 285.302857 4.64 73.062857 12.205714 141.257143 17.394286 183.302857L512.001903 818.171429l315.085714-114.582858c5.188571-42.045714 12.765714-110.24 17.394286-183.302857 13.302857-209.668571-8.777143-271.382857-15.851429-285.28zM546.710474 412.571429a140.697143 140.697143 0 1 1-69.417143 0v-314.891429h69.417143V234.66285700000003h138.834286v73.142857H546.710474z m-102.262857 136.4a67.554286 67.554286 0 1 0 67.554286-67.554286 67.634286 67.634286 0 0 0-67.554286 67.554286z"  horiz-adv-x="1024" />

    
    <glyph glyph-name="yunyinggongzuotai" unicode="&#58970;" d="M837.818182 709.818182H186.181818a93.090909 93.090909 0 0 1-93.090909-93.090909v-349.090909a93.090909 93.090909 0 0 1 93.090909-93.090909h302.545455v-93.09091h-139.636364a23.272727 23.272727 0 0 1 0-46.545454h325.818182a23.272727 23.272727 0 0 1 0 46.545454h-139.636364v93.09091h302.545455a93.090909 93.090909 0 0 1 93.090909 93.090909V616.727273a93.090909 93.090909 0 0 1-93.090909 93.090909z m46.545454-442.181818a46.545455 46.545455 0 0 0-46.545454-46.545455H186.181818a46.545455 46.545455 0 0 0-46.545454 46.545455V616.727273a46.545455 46.545455 0 0 0 46.545454 46.545454h651.636364a46.545455 46.545455 0 0 0 46.545454-46.545454zM754.036364 542.254545l-173.847273-130.56-149.643636 85.643637a23.272727 23.272727 0 0 1-25.134546-1.396364l-162.909091-116.363636A23.272727 23.272727 0 0 1 256 337.454545a23.272727 23.272727 0 0 1 13.498182 4.421819l150.807273 107.52 149.876363-85.643637a23.272727 23.272727 0 0 1 25.6 1.629091l186.181818 139.636364a23.272727 23.272727 0 1 1-27.927272 37.236363z"  horiz-adv-x="1024" />

    
    <glyph glyph-name="zhangwugongzuotai" unicode="&#58971;" d="M698.181818 452.421818V616.727273c0 79.592727-120.087273 139.636364-279.272727 139.636363S139.636364 696.32 139.636364 616.727273v-418.909091c0-79.592727 120.087273-139.636364 279.272727-139.636364 16.290909 0 32.581818 0 48.407273 2.094546 36.305455-35.84 108.683636-59.112727 195.956363-59.112728 119.854545 0 211.316364 43.752727 220.16 103.563637V340.712727c0.930909 58.414545-77.032727 103.563636-185.250909 111.709091z m139.636364-111.709091c0-27.229091-67.956364-66.792727-174.545455-66.792727S488.727273 314.181818 488.727273 340.712727 556.683636 407.272727 663.272727 407.272727s174.545455-39.563636 174.545455-66.56zM418.909091 709.818182c133.12 0 232.727273-49.105455 232.727273-93.090909s-99.607273-93.090909-232.727273-93.090909-232.727273 49.105455-232.727273 93.090909 99.607273 93.090909 232.727273 93.090909zM186.181818 537.367273C235.287273 500.363636 319.534545 477.090909 418.909091 477.090909s183.621818 23.272727 232.727273 60.276364V453.818182c-88.901818-2.094545-161.047273-28.858182-192.465455-67.723637-13.265455 0-26.530909-1.861818-40.261818-1.861818-133.12 0-232.727273 49.105455-232.727273 93.090909z m0-139.636364C235.287273 360.727273 319.534545 337.454545 418.909091 337.454545h23.272727v-93.090909h-23.272727c-133.12 0-232.727273 49.105455-232.727273 93.090909zM186.181818 197.818182v60.276363C235.287273 221.090909 319.534545 197.818182 418.909091 197.818182h23.272727v-93.090909h-23.272727c-133.12 0-232.727273 49.105455-232.727273 93.090909z m477.090909-150.109091c-106.589091 0-174.545455 39.330909-174.545454 66.56v42.123636a327.912727 327.912727 0 0 1 174.545454-42.123636 327.912727 327.912727 0 0 1 174.545455 42.123636v-42.123636c0-27.229091-67.956364-66.56-174.545455-66.56z m0 113.105454c-106.589091 0-174.545455 39.563636-174.545454 66.56v42.356364a327.68 327.68 0 0 1 174.545454-42.356364 327.68 327.68 0 0 1 174.545455 42.356364v-42.356364c0-26.996364-67.956364-66.56-174.545455-66.56z"  horiz-adv-x="1024" />

    
    <glyph glyph-name="fengkonggongzuotai" unicode="&#58972;" d="M827.578182 682.589091a561.570909 561.570909 0 0 1-631.156364 0A23.272727 23.272727 0 0 1 186.181818 663.272727v-211.083636a498.269091 498.269091 0 0 1 317.44-462.196364 23.272727 23.272727 0 0 1 16.756364 0A498.269091 498.269091 0 0 1 837.818182 452.189091V663.272727a23.272727 23.272727 0 0 1-10.24 19.316364zM791.272727 452.189091a451.490909 451.490909 0 0 0-279.272727-415.418182 451.490909 451.490909 0 0 0-279.272727 415.418182v198.516364a514.56 514.56 0 0 0 558.545454 0zM488.727273 546.909091v-116.363636h-116.363637a23.272727 23.272727 0 0 1 0-46.545455h116.363637v-116.363636a23.272727 23.272727 0 0 1 46.545454 0v116.363636h116.363637a23.272727 23.272727 0 0 1 0 46.545455h-116.363637v116.363636a23.272727 23.272727 0 0 1-46.545454 0z"  horiz-adv-x="1024" />

    
    <glyph glyph-name="chanpingongzuotai" unicode="&#58973;" d="M837.818182 623.476364L558.545455 764.043636a93.090909 93.090909 0 0 1-93.09091 0L186.181818 622.778182a93.090909 93.090909 0 0 1-46.545454-80.290909v-331.636364a93.090909 93.090909 0 0 1 46.545454-80.989091l279.272727-139.636363a93.090909 93.090909 0 0 1 47.709091-13.032728A90.763636 90.763636 0 0 1 558.545455-11.636364l279.272727 142.196364a93.090909 93.090909 0 0 1 46.545454 80.290909V542.487273a93.090909 93.090909 0 0 1-46.545454 80.989091zM209.454545 582.050909l279.272728 141.963636a46.545455 46.545455 0 0 0 23.272727 6.283637 48.407273 48.407273 0 0 0 25.134545-6.981818l279.272728-139.636364a52.596364 52.596364 0 0 0 11.403636-10.007273L512 400.058182 197.352727 572.741818a39.796364 39.796364 0 0 0 10.472728 9.309091z m0-411.461818a46.545455 46.545455 0 0 0-23.272727 40.261818V525.730909L488.727273 360.727273v-330.472728h-1.629091z m628.363637 40.261818a46.545455 46.545455 0 0 0-21.643637-39.330909L535.272727 29.323636V360.727273l302.545455 165.934545v-315.810909zM581.818182 199.214545L791.272727 314.181818v53.061818l-209.454545-114.967272v-53.061819zM232.727273 314.181818l209.454545-114.967273v53.061819l-209.454545 114.967272V314.181818z"  horiz-adv-x="1024" />

    
    <glyph glyph-name="banjie" unicode="&#58974;" d="M302.545455 570.181818h349.090909a23.272727 23.272727 0 0 1 0 46.545455H302.545455a23.272727 23.272727 0 0 1 0-46.545455zM302.545455 430.545455h279.272727a23.272727 23.272727 0 0 1 0 46.545454H302.545455a23.272727 23.272727 0 0 1 0-46.545454zM465.454545 314.181818a23.272727 23.272727 0 0 1-23.272727 23.272727h-139.636363a23.272727 23.272727 0 0 1 0-46.545454h139.636363a23.272727 23.272727 0 0 1 23.272727 23.272727zM372.363636 197.818182h-69.818181a23.272727 23.272727 0 0 1 0-46.545455h69.818181a23.272727 23.272727 0 0 1 0 46.545455zM791.272727 290.909091V663.272727a93.090909 93.090909 0 0 1-93.090909 93.090909H279.272727a93.090909 93.090909 0 0 1-93.090909-93.090909v-581.818182a93.090909 93.090909 0 0 1 93.090909-93.090909h261.352728A195.490909 195.490909 0 0 1 651.636364-46.545455 197.352727 197.352727 0 0 1 791.272727 290.909091zM279.272727 34.909091a46.545455 46.545455 0 0 0-46.545454 46.545454V663.272727a46.545455 46.545455 0 0 0 46.545454 46.545455h418.909091a46.545455 46.545455 0 0 0 46.545455-46.545455v-337.687272a195.258182 195.258182 0 0 1-93.090909 23.272727A197.818182 197.818182 0 0 1 491.752727 34.909091z m372.363637-34.909091a151.04 151.04 0 1 0 151.272727 151.272727 150.341818 150.341818 0 0 0-151.272727-151.272727zM694.458182 197.818182l-57.483637-57.483637-16.523636 16.29091a23.272727 23.272727 0 0 1-33.047273 0 23.272727 23.272727 0 0 1 0-32.814546l33.047273-33.047273a23.272727 23.272727 0 0 1 32.814546 0l74.24 74.24a23.272727 23.272727 0 0 1 0 32.814546 23.272727 23.272727 0 0 1-33.047273 0z"  horiz-adv-x="1024" />

    
    <glyph glyph-name="shijian" unicode="&#58975;" d="M510.138182 752.407273h-3.258182A365.149091 365.149091 0 0 1 139.636364 382.836364a380.509091 380.509091 0 0 1 376.087272-375.156364h3.490909A365.149091 365.149091 0 0 1 884.363636 377.250909 379.810909 379.810909 0 0 1 510.138182 752.407273zM744.727273 147.549091a319.767273 319.767273 0 0 0-229.236364-93.090909A333.730909 333.730909 0 0 0 186.181818 384 318.603636 318.603636 0 0 0 506.88 705.861818h3.025455A333.265455 333.265455 0 0 0 837.818182 377.018182a318.138182 318.138182 0 0 0-93.090909-229.469091zM605.090909 360.727273h-93.090909v186.181818a23.272727 23.272727 0 0 1-46.545455 0v-209.454546a23.272727 23.272727 0 0 1 23.272728-23.272727h116.363636a23.272727 23.272727 0 0 1 0 46.545455z"  horiz-adv-x="1024" />

    
    <glyph glyph-name="daochu" unicode="&#58976;" d="M791.272727 756.363636h-139.636363a23.272727 23.272727 0 0 1 0-46.545454h139.636363a48.64 48.64 0 0 0 11.869091-1.629091L550.167273 453.818182a23.272727 23.272727 0 0 1 0-32.814546 23.272727 23.272727 0 0 1 16.290909-6.981818 23.272727 23.272727 0 0 1 16.523636 6.981818L836.189091 675.141818A48.64 48.64 0 0 0 837.818182 663.272727v-139.636363a23.272727 23.272727 0 0 1 46.545454 0v139.636363a93.090909 93.090909 0 0 1-93.090909 93.090909zM861.090909 384a23.272727 23.272727 0 0 1-23.272727-23.272727v-256a46.545455 46.545455 0 0 0-46.545455-46.545455H232.727273a46.545455 46.545455 0 0 0-46.545455 46.545455V663.272727a46.545455 46.545455 0 0 0 46.545455 46.545455h256a23.272727 23.272727 0 0 1 0 46.545454H232.727273a93.090909 93.090909 0 0 1-93.090909-93.090909v-558.545454a93.090909 93.090909 0 0 1 93.090909-93.090909h558.545454a93.090909 93.090909 0 0 1 93.090909 93.090909V360.727273a23.272727 23.272727 0 0 1-23.272727 23.272727z"  horiz-adv-x="1024" />

    
    <glyph glyph-name="kehuguanxiguanli" unicode="&#58977;" d="M791.272727 756.363636H232.727273a93.090909 93.090909 0 0 1-93.090909-93.090909v-558.545454a93.090909 93.090909 0 0 1 93.090909-93.090909h558.545454a93.090909 93.090909 0 0 1 93.090909 93.090909V663.272727a93.090909 93.090909 0 0 1-93.090909 93.090909z m46.545455-651.636363a46.545455 46.545455 0 0 0-46.545455-46.545455H232.727273a46.545455 46.545455 0 0 0-46.545455 46.545455V663.272727a46.545455 46.545455 0 0 0 46.545455 46.545455h558.545454a46.545455 46.545455 0 0 0 46.545455-46.545455zM526.661818 366.08a139.636364 139.636364 0 1 1-168.96 0A209.454545 209.454545 0 0 1 232.727273 174.545455a23.272727 23.272727 0 0 1 46.545454 0 162.909091 162.909091 0 0 0 325.818182 0 23.272727 23.272727 0 0 1 46.545455 0 209.454545 209.454545 0 0 1-124.974546 191.534545zM349.090909 477.090909a93.090909 93.090909 0 1 0 93.090909-93.090909 93.090909 93.090909 0 0 0-93.090909 93.090909zM768 570.181818h-46.545455a23.272727 23.272727 0 0 1 0-46.545454h46.545455a23.272727 23.272727 0 0 1 0 46.545454zM768 430.545455h-46.545455a23.272727 23.272727 0 0 1 0-46.545455h46.545455a23.272727 23.272727 0 0 1 0 46.545455zM768 290.909091h-46.545455a23.272727 23.272727 0 0 1 0-46.545455h46.545455a23.272727 23.272727 0 0 1 0 46.545455z"  horiz-adv-x="1024" />

    
    <glyph glyph-name="shangchuan" unicode="&#58978;" d="M795.694545 500.363636a289.047273 289.047273 0 0 1-567.38909 0 197.585455 197.585455 0 0 1 18.385454-395.636363h30.952727a23.272727 23.272727 0 0 1 0 46.545454H246.690909a151.272727 151.272727 0 1 0-2.327273 302.545455l23.272728-5.352727 3.025454 25.6a242.269091 242.269091 0 0 0 480.814546 0l4.654545-25.134546 23.272727 4.887273a151.272727 151.272727 0 1 0-2.327272-302.545455h-34.909091a23.272727 23.272727 0 0 1 0-46.545454h35.141818a197.585455 197.585455 0 0 1 18.385454 395.636363zM528.523636 415.650909a23.272727 23.272727 0 0 1-33.047272 0l-131.490909-131.490909a23.272727 23.272727 0 0 1 0-33.047273 23.272727 23.272727 0 0 1 32.814545 0L488.727273 343.04V58.181818a23.272727 23.272727 0 0 1 46.545454 0V343.04l93.090909-91.927273a23.272727 23.272727 0 0 1 16.523637-6.749091 23.272727 23.272727 0 0 1 16.290909 39.796364z"  horiz-adv-x="1024" />

    
    <glyph glyph-name="xindaigongzuotai" unicode="&#58979;" d="M861.090909 686.545455H162.909091a93.090909 93.090909 0 0 1-93.090909-93.09091v-418.90909a93.090909 93.090909 0 0 1 93.090909-93.09091h698.181818a93.090909 93.090909 0 0 1 93.090909 93.09091V593.454545a93.090909 93.090909 0 0 1-93.090909 93.09091z m46.545455-512a46.545455 46.545455 0 0 0-46.545455-46.545455H162.909091a46.545455 46.545455 0 0 0-46.545455 46.545455V453.818182h791.272728zM116.363636 500.363636v93.090909a46.545455 46.545455 0 0 0 46.545455 46.545455h698.181818a46.545455 46.545455 0 0 0 46.545455-46.545455v-93.090909zM162.909091 244.363636h69.818182a23.272727 23.272727 0 0 1 0 46.545455H162.909091a23.272727 23.272727 0 0 1 0-46.545455zM162.909091 337.454545h349.090909a23.272727 23.272727 0 0 1 0 46.545455H162.909091a23.272727 23.272727 0 0 1 0-46.545455z"  horiz-adv-x="1024" />

    
    <glyph glyph-name="sousuo" unicode="&#58980;" d="M773.352727 133.818182l-2.094545 1.396363a368.407273 368.407273 0 0 1-14.894546 497.338182 353.745455 353.745455 0 0 1-506.647272 0 368.64 368.64 0 0 1 0-514.327272 353.512727 353.512727 0 0 1 488.727272-15.825455l67.723637-69.818182a23.272727 23.272727 0 0 1 16.523636-6.981818 23.272727 23.272727 0 0 1 16.523636 39.563636zM503.156364 58.181818a306.734545 306.734545 0 0 0-220.16 93.090909 321.629091 321.629091 0 0 0 0 448.930909 307.2 307.2 0 0 0 440.087272 0 321.629091 321.629091 0 0 0 0-448.930909 306.269091 306.269091 0 0 0-219.927272-93.090909z"  horiz-adv-x="1024" />

    
    <glyph glyph-name="xiaogongju" unicode="&#58981;" d="M861.090909 616.727273h-139.636364V686.545455a23.272727 23.272727 0 0 1-23.272727 23.272727H325.818182a23.272727 23.272727 0 0 1-23.272727-23.272727v-69.818182H162.909091a93.090909 93.090909 0 0 1-93.090909-93.090909v-395.636364a93.090909 93.090909 0 0 1 93.090909-93.090909h698.181818a93.090909 93.090909 0 0 1 93.090909 93.090909V523.636364a93.090909 93.090909 0 0 1-93.090909 93.090909z m-512 46.545454h325.818182v-46.545454H349.090909z m-186.181818-93.090909h698.181818a46.545455 46.545455 0 0 0 46.545455-46.545454v-93.090909h-162.909091v46.545454a23.272727 23.272727 0 0 1-46.545455 0v-46.545454H325.818182v46.545454a23.272727 23.272727 0 0 1-46.545455 0v-46.545454H116.363636v93.090909a46.545455 46.545455 0 0 0 46.545455 46.545454z m698.181818-488.727273H162.909091a46.545455 46.545455 0 0 0-46.545455 46.545455V384h162.909091v-46.545455a23.272727 23.272727 0 0 1 46.545455 0v46.545455h372.363636v-46.545455a23.272727 23.272727 0 0 1 46.545455 0v46.545455h162.909091v-256a46.545455 46.545455 0 0 0-46.545455-46.545455z"  horiz-adv-x="1024" />

    
    <glyph glyph-name="riqi" unicode="&#58982;" d="M791.272727 686.545455h-116.363636V709.818182a23.272727 23.272727 0 0 1-46.545455 0v-23.272727H395.636364V709.818182a23.272727 23.272727 0 0 1-46.545455 0v-23.272727h-116.363636a93.090909 93.090909 0 0 1-93.090909-93.09091v-488.727272a93.090909 93.090909 0 0 1 93.090909-93.090909h558.545454a93.090909 93.090909 0 0 1 93.090909 93.090909V593.454545a93.090909 93.090909 0 0 1-93.090909 93.09091zM186.181818 593.454545a46.545455 46.545455 0 0 0 46.545455 46.545455h116.363636v-23.272727a23.272727 23.272727 0 0 1 46.545455 0v23.272727h232.727272v-23.272727a23.272727 23.272727 0 0 1 46.545455 0v23.272727h116.363636a46.545455 46.545455 0 0 0 46.545455-46.545455v-69.818181H186.181818z m651.636364-488.727272a46.545455 46.545455 0 0 0-46.545455-46.545455H232.727273a46.545455 46.545455 0 0 0-46.545455 46.545455V477.090909h651.636364zM302.545455 337.454545h139.636363a23.272727 23.272727 0 0 1 0 46.545455h-139.636363a23.272727 23.272727 0 0 1 0-46.545455zM302.545455 197.818182h139.636363a23.272727 23.272727 0 0 1 0 46.545454h-139.636363a23.272727 23.272727 0 0 1 0-46.545454zM581.818182 337.454545h139.636363a23.272727 23.272727 0 0 1 0 46.545455h-139.636363a23.272727 23.272727 0 0 1 0-46.545455zM581.818182 197.818182h139.636363a23.272727 23.272727 0 0 1 0 46.545454h-139.636363a23.272727 23.272727 0 0 1 0-46.545454z"  horiz-adv-x="1024" />

    
    <glyph glyph-name="guanli" unicode="&#58983;" d="M897.861818 457.774545l-48.407273 14.661819a338.152727 338.152727 0 0 1-36.538181 87.738181l23.272727 44.45091a46.545455 46.545455 0 0 1-8.145455 54.923636l-40.494545 41.425454A46.545455 46.545455 0 0 1 732.625455 709.818182l-44.45091-23.272727a329.076364 329.076364 0 0 1-87.738181 34.676363l-14.661819 48.64A46.545455 46.545455 0 0 1 541.323636 802.909091h-58.647272a46.545455 46.545455 0 0 1-44.450909-33.047273L423.563636 721.454545a330.24 330.24 0 0 1-87.738181-36.538181L291.374545 709.818182a46.545455 46.545455 0 0 1-54.923636-7.912727l-41.425454-42.356364A46.545455 46.545455 0 0 1 186.181818 604.625455l23.272727-44.45091a336.756364 336.756364 0 0 1-34.676363-87.738181l-48.64-14.661819A46.545455 46.545455 0 0 1 93.090909 413.323636v-58.647272a46.545455 46.545455 0 0 1 33.047273-44.450909l48.407273-14.661819a338.152727 338.152727 0 0 1 36.538181-87.738181L186.181818 163.374545a46.545455 46.545455 0 0 1 8.145455-54.923636l41.425454-41.425454a46.545455 46.545455 0 0 1 54.923637-7.912728l44.450909 23.272728a329.076364 329.076364 0 0 1 87.738182-36.072728l14.661818-48.64a46.545455 46.545455 0 0 1 45.149091-32.581818h58.647272a46.545455 46.545455 0 0 1 44.450909 33.047273l14.661819 48.407273a330.24 330.24 0 0 1 87.738181 36.538181l44.45091-23.272727a46.545455 46.545455 0 0 1 54.923636 7.912727l41.425454 41.425455a46.545455 46.545455 0 0 1 8.843637 54.225454l-23.272727 44.45091a336.756364 336.756364 0 0 1 36.072727 87.738181l48.64 14.661819A46.545455 46.545455 0 0 1 930.909091 354.676364v58.647272a46.545455 46.545455 0 0 1-33.047273 44.450909z m-61.905454-117.527272a46.545455 46.545455 0 0 1-31.418182-32.814546 302.545455 302.545455 0 0 0-31.418182-76.101818 46.545455 46.545455 0 0 1 0-46.545454l23.272727-44.45091-41.658182-40.261818-44.683636 23.272728a46.545455 46.545455 0 0 1-46.545454 0 305.338182 305.338182 0 0 0-75.869091-31.418182 46.545455 46.545455 0 0 1-33.047273-31.418182l-13.265455-48.872727h-58.414545l-14.661818 48.407272a46.545455 46.545455 0 0 1-33.047273 31.418182 305.338182 305.338182 0 0 0-75.869091 31.418182 46.545455 46.545455 0 0 1-23.272727 6.516364 46.545455 46.545455 0 0 1-21.643637-5.352728l-44.450909-23.272727-41.890909 40.494546 23.272728 44.683636a46.545455 46.545455 0 0 1-1.163637 46.545454 302.545455 302.545455 0 0 0-31.418182 76.101819 46.545455 46.545455 0 0 1-31.418181 32.814545L139.636364 354.676364v58.414545l48.407272 14.661818a46.545455 46.545455 0 0 1 31.418182 32.814546 302.545455 302.545455 0 0 0 31.418182 76.101818 46.545455 46.545455 0 0 1 1.163636 45.381818l-23.272727 44.450909 40.494546 41.425455 44.683636-23.272728a46.545455 46.545455 0 0 1 45.381818 1.163637 305.338182 305.338182 0 0 0 75.869091 30.72 46.545455 46.545455 0 0 1 33.047273 31.418182L482.676364 756.363636h58.414545l14.661818-48.407272a46.545455 46.545455 0 0 1 33.047273-31.418182 305.338182 305.338182 0 0 0 75.869091-31.418182 46.545455 46.545455 0 0 1 46.545454-1.163636l44.45091 23.272727 41.425454-41.425455-23.272727-44.683636a46.545455 46.545455 0 0 1 0-45.381818 302.545455 302.545455 0 0 0 31.418182-76.101818 46.545455 46.545455 0 0 1 31.418181-32.814546l48.407273-14.429091v-58.414545zM512 570.181818a186.181818 186.181818 0 1 1 186.181818-186.181818 186.181818 186.181818 0 0 1-186.181818 186.181818z m0-325.818182a139.636364 139.636364 0 1 0 139.636364 139.636364 139.636364 139.636364 0 0 0-139.636364-139.636364z"  horiz-adv-x="1024" />

    
    <glyph glyph-name="baobiao" unicode="&#58984;" d="M837.818182 709.818182H186.181818a93.090909 93.090909 0 0 1-93.090909-93.090909v-349.090909a93.090909 93.090909 0 0 1 93.090909-93.090909h302.545455v-93.09091h-139.636364a23.272727 23.272727 0 0 1 0-46.545454h325.818182a23.272727 23.272727 0 0 1 0 46.545454h-139.636364v93.09091h302.545455a93.090909 93.090909 0 0 1 93.090909 93.090909V616.727273a93.090909 93.090909 0 0 1-93.090909 93.090909z m46.545454-442.181818a46.545455 46.545455 0 0 0-46.545454-46.545455H186.181818a46.545455 46.545455 0 0 0-46.545454 46.545455V616.727273a46.545455 46.545455 0 0 0 46.545454 46.545454h651.636364a46.545455 46.545455 0 0 0 46.545454-46.545454zM302.545455 523.636364a23.272727 23.272727 0 0 1-23.272728-23.272728v-186.181818a23.272727 23.272727 0 0 1 46.545455 0v186.181818a23.272727 23.272727 0 0 1-23.272727 23.272728zM581.818182 500.363636a23.272727 23.272727 0 0 1-23.272727-23.272727v-162.909091a23.272727 23.272727 0 0 1 46.545454 0v162.909091a23.272727 23.272727 0 0 1-23.272727 23.272727zM721.454545 593.454545a23.272727 23.272727 0 0 1-23.272727-23.272727v-256a23.272727 23.272727 0 0 1 46.545455 0V570.181818a23.272727 23.272727 0 0 1-23.272728 23.272727zM442.181818 430.545455a23.272727 23.272727 0 0 1-23.272727-23.272728v-93.090909a23.272727 23.272727 0 0 1 46.545454 0v93.090909a23.272727 23.272727 0 0 1-23.272727 23.272728z"  horiz-adv-x="1024" />

    
    <glyph glyph-name="wodedaiban" unicode="&#58985;" d="M302.545455 570.181818h349.090909a23.272727 23.272727 0 0 1 0 46.545455H302.545455a23.272727 23.272727 0 0 1 0-46.545455zM302.545455 430.545455h279.272727a23.272727 23.272727 0 0 1 0 46.545454H302.545455a23.272727 23.272727 0 0 1 0-46.545454zM465.454545 314.181818a23.272727 23.272727 0 0 1-23.272727 23.272727h-139.636363a23.272727 23.272727 0 0 1 0-46.545454h139.636363a23.272727 23.272727 0 0 1 23.272727 23.272727zM372.363636 197.818182h-69.818181a23.272727 23.272727 0 0 1 0-46.545455h69.818181a23.272727 23.272727 0 0 1 0 46.545455zM791.272727 290.909091V663.272727a93.090909 93.090909 0 0 1-93.090909 93.090909H279.272727a93.090909 93.090909 0 0 1-93.090909-93.090909v-581.818182a93.090909 93.090909 0 0 1 93.090909-93.090909h261.352728A195.490909 195.490909 0 0 1 651.636364-46.545455 197.352727 197.352727 0 0 1 791.272727 290.909091zM279.272727 34.909091a46.545455 46.545455 0 0 0-46.545454 46.545454V663.272727a46.545455 46.545455 0 0 0 46.545454 46.545455h418.909091a46.545455 46.545455 0 0 0 46.545455-46.545455v-337.687272a195.258182 195.258182 0 0 1-93.090909 23.272727A197.818182 197.818182 0 0 1 491.752727 34.909091z m372.363637-34.909091a151.04 151.04 0 1 0 151.272727 151.272727 150.341818 150.341818 0 0 0-151.272727-151.272727zM698.181818 139.636364h-46.545454V221.090909a23.272727 23.272727 0 0 1-46.545455 0v-104.727273a23.272727 23.272727 0 0 1 23.272727-23.272727h69.818182a23.272727 23.272727 0 0 1 0 46.545455z"  horiz-adv-x="1024" />

    
    <glyph glyph-name="luru" unicode="&#58986;" d="M884.363636 616.727273l-132.189091 131.258182a91.694545 91.694545 0 0 1-129.62909 2.56l-51.432728-51.665455L159.650909 287.650909l-5.818182-5.585454a23.272727 23.272727 0 0 1-6.749091-17.221819l5.818182-224.581818a23.272727 23.272727 0 0 1 23.272727-23.272727l224.581819-5.818182a23.272727 23.272727 0 0 1 16.290909 6.749091l417.28 417.745455 51.665454 51.665454A93.090909 93.090909 0 0 1 884.363636 616.727273zM406.341818 73.541818L209.454545 271.127273l377.949091 378.414545 197.585455-197.585454z m-211.549091 145.92L354.909091 58.181818l-156.16 3.956364z m658.152728 300.683637l-35.141819-35.141819-197.352727 197.585455 35.141818 35.141818a46.545455 46.545455 0 0 0 63.767273-2.56l131.258182-131.258182a45.149091 45.149091 0 0 0 2.327273-63.767272zM587.403636 550.865455a23.272727 23.272727 0 0 1-32.814545 0L307.665455 303.941818a23.272727 23.272727 0 0 1 16.523636-39.796363 23.272727 23.272727 0 0 1 16.523636 6.981818l246.690909 246.690909a23.272727 23.272727 0 0 1 0 33.047273zM686.312727 451.956364a23.272727 23.272727 0 0 1-33.047272 0l-246.923637-246.690909a23.272727 23.272727 0 0 1 0-33.047273 23.272727 23.272727 0 0 1 16.523637-6.749091 23.272727 23.272727 0 0 1 16.523636 6.749091l246.923636 246.923636a23.272727 23.272727 0 0 1 0 32.814546z"  horiz-adv-x="1024" />

    
    <glyph glyph-name="zhenshixingheshi" unicode="&#58987;" d="M427.985455 369.105455a125.207273 125.207273 0 1 1-157.789091 0A186.181818 186.181818 0 0 1 162.909091 200.610909a23.272727 23.272727 0 0 1 46.545454 0 139.636364 139.636364 0 1 0 279.272728 0 23.272727 23.272727 0 0 1 46.545454 0 186.181818 186.181818 0 0 1-107.287272 168.494546z m-157.556364 96.34909A78.661818 78.661818 0 1 0 349.090909 386.792727a78.894545 78.894545 0 0 0-78.661818 78.661818zM698.181818 523.636364h93.090909a23.272727 23.272727 0 0 1 0 46.545454h-93.090909a23.272727 23.272727 0 0 1 0-46.545454zM949.061818 392.610909l-6.516363 2.094546V593.454545a93.090909 93.090909 0 0 1-93.09091 93.09091h-698.181818a93.090909 93.090909 0 0 1-93.090909-93.09091v-418.90909a93.090909 93.090909 0 0 1 93.090909-93.09091h545.512728l78.894545-60.50909a44.450909 44.450909 0 0 1 54.458182 0l111.709091 85.643636a46.545455 46.545455 0 0 1 17.221818 30.952727l21.178182 208.058182a44.683636 44.683636 0 0 1-31.185455 47.010909z m-323.490909-46.545454l21.178182-208.058182a63.069091 63.069091 0 0 1 2.094545-9.541818H151.272727a46.545455 46.545455 0 0 0-46.545454 46.545454V593.454545a46.545455 46.545455 0 0 0 46.545454 46.545455h698.181818a46.545455 46.545455 0 0 0 46.545455-46.545455v-184.552727l-80.058182 24.669091a45.149091 45.149091 0 0 1-26.065454 0l-133.12-40.96a44.683636 44.683636 0 0 1-31.185455-47.010909z m287.883636-202.007273L802.909091 58.181818l-84.014546 64.465455-25.832727 19.781818-20.945454 205.730909 130.327272 40.494545 109.847273-33.978181 21.178182-6.516364zM857.367273 290.909091l-57.483637-57.483636-16.523636 16.290909a23.272727 23.272727 0 0 1-33.047273 0 23.272727 23.272727 0 0 1 0-32.814546l33.047273-33.047273a23.272727 23.272727 0 0 1 32.814545 0l74.24 74.24a23.272727 23.272727 0 0 1 0 32.814546 23.272727 23.272727 0 0 1-33.047272 0z"  horiz-adv-x="1024" />

    
    <glyph glyph-name="jianshao" unicode="&#58988;" d="M651.636364 407.272727H372.363636a23.272727 23.272727 0 0 1 0-46.545454h279.272728a23.272727 23.272727 0 0 1 0 46.545454zM509.207273 756.363636A365.149091 365.149091 0 0 1 139.636364 386.792727 380.509091 380.509091 0 0 1 514.792727 11.636364h3.258182A365.614545 365.614545 0 0 1 884.363636 381.207273 380.509091 380.509091 0 0 1 509.207273 756.363636zM744.727273 151.272727a315.345455 315.345455 0 0 0-229.236364-93.090909A333.730909 333.730909 0 0 0 186.181818 387.258182 318.603636 318.603636 0 0 0 505.949091 709.818182h2.792727A333.730909 333.730909 0 0 0 837.818182 380.741818 317.905455 317.905455 0 0 0 744.727273 151.272727z"  horiz-adv-x="1024" />

    
    <glyph glyph-name="daoru" unicode="&#58989;" d="M517.12 435.665455v116.363636a23.272727 23.272727 0 0 1-46.545455 0v-116.363636a93.090909 93.090909 0 0 1 93.09091-93.09091h116.363636a23.272727 23.272727 0 0 1 0 46.545455h-116.363636a39.563636 39.563636 0 0 0-11.869091 1.861818l247.854545 247.854546A23.272727 23.272727 0 0 1 768 671.650909L518.981818 423.796364a39.563636 39.563636 0 0 0-1.861818 11.869091zM861.090909 500.363636a23.272727 23.272727 0 0 1-23.272727-23.272727v-372.363636a46.545455 46.545455 0 0 0-46.545455-46.545455H232.727273a46.545455 46.545455 0 0 0-46.545455 46.545455V663.272727a46.545455 46.545455 0 0 0 46.545455 46.545455h372.363636a23.272727 23.272727 0 0 1 0 46.545454H232.727273a93.090909 93.090909 0 0 1-93.090909-93.090909v-558.545454a93.090909 93.090909 0 0 1 93.090909-93.090909h558.545454a93.090909 93.090909 0 0 1 93.090909 93.090909V477.090909a23.272727 23.272727 0 0 1-23.272727 23.272727z"  horiz-adv-x="1024" />

    
    <glyph glyph-name="shanchu" unicode="&#58990;" d="M814.545455 570.181818h-93.09091a69.818182 69.818182 0 0 1-69.818181 69.818182h-46.545455v23.272727c0 39.098182-40.96 69.818182-93.090909 69.818182s-93.090909-30.72-93.090909-69.818182v-23.272727h-46.545455a69.818182 69.818182 0 0 1-69.818181-69.818182H209.454545a23.272727 23.272727 0 0 1 0-46.545454h46.545455v-418.909091a93.090909 93.090909 0 0 1 93.090909-93.090909h325.818182a93.090909 93.090909 0 0 1 93.090909 93.090909V523.636364h46.545455a23.272727 23.272727 0 0 1 0 46.545454z m-349.09091 93.090909c0 9.541818 18.152727 23.272727 46.545455 23.272728s46.545455-13.730909 46.545455-23.272728v-23.272727h-93.09091z m-116.363636-93.090909a23.272727 23.272727 0 0 0 23.272727 23.272727h279.272728a23.272727 23.272727 0 0 0 23.272727-23.272727z m372.363636-465.454545a46.545455 46.545455 0 0 0-46.545454-46.545455H349.090909a46.545455 46.545455 0 0 0-46.545454 46.545455V523.636364h418.90909zM372.363636 174.545455a23.272727 23.272727 0 0 1 23.272728 23.272727v209.454545a23.272727 23.272727 0 0 1-46.545455 0v-209.454545a23.272727 23.272727 0 0 1 23.272727-23.272727zM512 174.545455a23.272727 23.272727 0 0 1 23.272727 23.272727v209.454545a23.272727 23.272727 0 0 1-46.545454 0v-209.454545a23.272727 23.272727 0 0 1 23.272727-23.272727zM651.636364 174.545455a23.272727 23.272727 0 0 1 23.272727 23.272727v209.454545a23.272727 23.272727 0 0 1-46.545455 0v-209.454545a23.272727 23.272727 0 0 1 23.272728-23.272727z"  horiz-adv-x="1024" />

    
    <glyph glyph-name="shenpiren" unicode="&#58991;" d="M598.341818 342.341818A248.785455 248.785455 0 0 1 693.061818 546.909091a247.389091 247.389091 0 0 1-21.643636 104.029091 8.843636 8.843636 0 0 1 0 2.327273 17.687273 17.687273 0 0 1-1.861818 2.56A171.985455 171.985455 0 0 1 512 756.363636c-104.96 0-181.061818-88.203636-181.061818-209.454545a248.785455 248.785455 0 0 1 94.72-204.567273C296.494545 316.509091 209.454545 232.494545 209.454545 123.578182a109.614545 109.614545 0 0 1 30.021819-81.221818c40.494545-40.261818 114.734545-44.218182 209.454545-44.218182h116.363636c103.563636 0 178.269091 0 218.996364 39.563636a114.501818 114.501818 0 0 1 30.254546 85.876364c0 108.916364-87.04 192.930909-216.203637 218.763636zM512 235.054545l-52.596364 65.861819a426.123636 426.123636 0 0 0 105.192728 0zM512 709.818182a123.578182 123.578182 0 0 0 104.727273-55.854546c-147.316364-64.930909-219.694545-41.425455-228.305455-37.934545A129.396364 129.396364 0 0 0 512 709.818182z m-134.516364-162.909091c0 7.912727 0 15.592727 1.163637 23.272727a206.196364 206.196364 0 0 1 59.810909-7.68 497.570909 497.570909 0 0 1 198.516363 49.570909 212.945455 212.945455 0 0 0 9.541819-65.163636c0-102.632727-60.276364-186.181818-134.516364-186.181818s-134.516364 83.549091-134.516364 186.181818zM751.709091 70.516364c-26.996364-26.530909-93.090909-26.298182-186.181818-25.832728h-80.756364c-97.047273 0-180.596364 0-212.48 30.72a63.301818 63.301818 0 0 0-16.290909 48.174546c0 78.196364 60.043636 139.636364 152.203636 166.632727l85.643637-106.821818s1.163636 0 1.629091-1.396364a10.007273 10.007273 0 0 1 2.094545-2.327272 21.178182 21.178182 0 0 1 3.025455-1.861819l2.56-1.396363A23.272727 23.272727 0 0 1 512 174.545455a19.781818 19.781818 0 0 1 8.843636 2.094545l2.56 1.163636a21.178182 21.178182 0 0 1 3.025455 1.861819 10.007273 10.007273 0 0 1 2.094545 2.327272s1.163636 0 1.629091 1.396364L615.796364 290.909091c93.090909-26.298182 152.203636-88.436364 152.203636-166.632727a68.189091 68.189091 0 0 0-16.290909-53.76z"  horiz-adv-x="1024" />

    
    <glyph glyph-name="xiazai" unicode="&#58992;" d="M795.694545 500.363636a289.047273 289.047273 0 0 1-567.38909 0 197.585455 197.585455 0 0 1 18.385454-395.636363h30.952727a23.272727 23.272727 0 0 1 0 46.545454H246.690909a151.272727 151.272727 0 1 0-2.327273 302.545455l23.272728-5.352727 3.025454 25.6a242.269091 242.269091 0 0 0 480.814546 0l4.654545-25.134546 23.272727 4.887273a151.272727 151.272727 0 1 0-2.327272-302.545455h-34.909091a23.272727 23.272727 0 0 1 0-46.545454h35.141818a197.585455 197.585455 0 0 1 18.385454 395.636363zM628.363636 206.196364l-91.927272-93.090909v286.254545a23.272727 23.272727 0 0 1-46.545455 0v-285.090909l-91.927273 93.090909A23.272727 23.272727 0 1 1 365.149091 174.545455l131.490909-131.723637a23.272727 23.272727 0 0 1 33.047273 0L661.178182 174.545455A23.272727 23.272727 0 1 1 628.363636 206.196364z"  horiz-adv-x="1024" />

    
    <glyph glyph-name="fenpei" unicode="&#58993;" d="M791.272727 11.636364H232.727273a93.090909 93.090909 0 0 0-93.090909 93.090909V663.272727a93.090909 93.090909 0 0 0 93.090909 93.090909h558.545454a93.090909 93.090909 0 0 0 93.090909-93.090909v-558.545454a93.090909 93.090909 0 0 0-93.090909-93.090909zM232.727273 709.818182a46.545455 46.545455 0 0 1-46.545455-46.545455v-558.545454a46.545455 46.545455 0 0 1 46.545455-46.545455h558.545454a46.545455 46.545455 0 0 1 46.545455 46.545455V663.272727a46.545455 46.545455 0 0 1-46.545455 46.545455zM721.454545 430.545455H302.545455a23.272727 23.272727 0 0 0 0 46.545454h349.090909l-37.236364 27.927273a23.272727 23.272727 0 0 0 27.927273 37.236363l93.090909-69.818181A23.272727 23.272727 0 0 0 721.454545 430.545455zM395.636364 221.090909a23.272727 23.272727 0 0 0-13.963637 4.654546l-93.090909 69.818181A23.272727 23.272727 0 0 0 302.545455 337.454545h418.90909a23.272727 23.272727 0 0 0 0-46.545454H372.363636l37.236364-27.927273a23.272727 23.272727 0 0 0 4.654545-32.581818 23.272727 23.272727 0 0 0-18.618181-9.309091z"  horiz-adv-x="1024" />

    
    <glyph glyph-name="xiugai" unicode="&#58994;" d="M899.956364 646.283636a23.272727 23.272727 0 0 1-6.749091 16.290909l-98.909091 98.909091a23.272727 23.272727 0 0 1-32.814546 0L349.090909 348.392727a186.181818 186.181818 0 0 1-223.650909-241.803636 23.272727 23.272727 0 0 1 37.469091-8.610909l87.505454 87.505454 65.861819-65.861818-86.574546-87.505454a23.272727 23.272727 0 0 1-6.283636-21.643637 23.272727 23.272727 0 0 1 14.894545-16.756363 184.785455 184.785455 0 0 1 62.138182-10.705455 186.181818 186.181818 0 0 1 179.665455 232.727273l413.090909 414.021818a23.272727 23.272727 0 0 1 6.749091 16.523636zM437.527273 239.941818a29.090909 29.090909 0 0 1-1.861818-2.792727 26.298182 26.298182 0 0 1-2.792728-4.189091 15.592727 15.592727 0 0 1-1.163636-4.421818v-4.189091a18.152727 18.152727 0 0 1 0-5.12 9.076364 9.076364 0 0 1 0-3.490909 139.636364 139.636364 0 0 0-139.636364-186.181818l73.541818 73.309091a23.272727 23.272727 0 0 1 0 33.047272l-98.676363 98.676364a23.272727 23.272727 0 0 1-33.047273 0l-72.378182-73.076364a139.636364 139.636364 0 0 0 186.181818 139.636364 15.825455 15.825455 0 0 1 3.258182 0 14.196364 14.196364 0 0 1 5.352728 0h3.723636a18.618182 18.618182 0 0 1 4.887273 1.163636l3.956363 2.56a23.272727 23.272727 0 0 1 3.025455 2.094546L778.007273 712.145455l65.629091-65.861819z"  horiz-adv-x="1024" />

    
    <glyph glyph-name="shiming" unicode="&#58995;" d="M427.985455 369.105455a125.207273 125.207273 0 1 1-157.789091 0A186.181818 186.181818 0 0 1 162.909091 200.610909a23.272727 23.272727 0 0 1 46.545454 0 139.636364 139.636364 0 1 0 279.272728 0 23.272727 23.272727 0 0 1 46.545454 0 186.181818 186.181818 0 0 1-107.287272 168.494546z m-157.556364 96.34909A78.661818 78.661818 0 1 0 349.090909 386.792727a78.894545 78.894545 0 0 0-78.661818 78.661818zM698.181818 523.636364h93.090909a23.272727 23.272727 0 0 1 0 46.545454h-93.090909a23.272727 23.272727 0 0 1 0-46.545454zM942.545455 347.927273V593.454545a93.090909 93.090909 0 0 1-93.09091 93.09091h-698.181818a93.090909 93.090909 0 0 1-93.090909-93.09091v-418.90909a93.090909 93.090909 0 0 1 93.090909-93.09091H651.636364a197.352727 197.352727 0 0 1 290.909091 266.472728zM151.272727 128a46.545455 46.545455 0 0 0-46.545454 46.545455V593.454545a46.545455 46.545455 0 0 0 46.545454 46.545455h698.181818a46.545455 46.545455 0 0 0 46.545455-46.545455v-204.8a197.585455 197.585455 0 0 1-302.545455-167.563636 195.258182 195.258182 0 0 1 23.272728-93.090909zM791.272727 69.818182a150.807273 150.807273 0 0 0-112.407272 50.501818 151.272727 151.272727 0 0 0 223.650909 203.403636A151.272727 151.272727 0 0 0 791.272727 69.818182zM834.094545 267.636364l-57.483636-57.483637-16.523636 16.290909a23.272727 23.272727 0 0 1-33.047273 0 23.272727 23.272727 0 0 1 0-32.814545l33.047273-33.047273a23.272727 23.272727 0 0 1 32.814545 0l74.24 74.24a23.272727 23.272727 0 0 1 0 32.814546 23.272727 23.272727 0 0 1-33.047273 0z"  horiz-adv-x="1024" />

    
    <glyph glyph-name="tianjia" unicode="&#58996;" d="M651.636364 405.876364h-116.363637v116.363636a23.272727 23.272727 0 0 1-46.545454 0v-116.363636h-116.363637a23.272727 23.272727 0 0 1 0-46.545455h116.363637v-116.363636a23.272727 23.272727 0 0 1 46.545454 0v116.363636h116.363637a23.272727 23.272727 0 0 1 0 46.545455zM509.44 754.967273A364.916364 364.916364 0 0 1 139.636364 385.396364a379.810909 379.810909 0 0 1 375.389091-374.923637h3.490909A365.149091 365.149091 0 0 1 884.363636 379.810909 379.810909 379.810909 0 0 1 509.44 754.967273zM744.727273 150.109091a321.163636 321.163636 0 0 0-229.469091-93.090909A332.8 332.8 0 0 0 186.181818 385.861818 318.370909 318.370909 0 0 0 506.181818 708.654545h3.025455A332.8 332.8 0 0 0 837.818182 379.578182a317.905455 317.905455 0 0 0-93.090909-229.469091z"  horiz-adv-x="1024" />

    
    <glyph glyph-name="toolkit" unicode="&#58927;" d="M854.956142 655.201007V791.414339A104.699676 104.699676 0 0 1 750.370481 896H273.629519a104.699676 104.699676 0 0 1-104.585661-104.585661V655.201007H1.214256v-273.55541h68.100966v-437.816352c0-39.734114 30.464721-71.829245 68.112366-71.829245h749.144824c37.624843 0 68.112367 32.152138 68.112366 71.829245v437.816352H1022.785744V655.201007zM242.01325 791.414339A31.650474 31.650474 0 0 0 273.629519 823.030608h476.740962a31.650474 31.650474 0 0 0 31.616269-31.616269V655.201007H242.01325z m639.702136-846.444947H142.284614v436.676205H376.322537v-100.617951a67.793126 67.793126 0 0 1 67.838731-67.838731h135.677464a67.793126 67.793126 0 0 1 67.838731 67.838731v100.617951h234.037923zM949.816352 473.860666v-19.245677H647.677463v29.928852a67.793126 67.793126 0 0 1-67.838731 67.838732h-135.677464a67.793126 67.793126 0 0 1-67.838731-67.838732v-29.928852H74.183648V582.2316149999999h875.632704z"  horiz-adv-x="1024" />

    


  </font>
</defs>
</svg>
